M48
; DRILL file {KiCad (6.0.9)} date Wed Jul 19 22:39:05 2023
; FORMAT={-:-/ absolute / metric / decimal}
; #@! TF.CreationDate,2023-07-19T22:39:05+02:00
; #@! TF.GenerationSoftware,Kicad,Pcbnew,(6.0.9)
; #@! TF.FileFunction,Plated,1,2,PTH
FMAT,2
METRIC
; #@! TA.AperFunction,Plated,PTH,ViaDrill
T1C0.400
; #@! TA.AperFunction,Plated,PTH,ComponentDrill
T2C0.800
%
G90
G05
T1
X71.402Y-104.142
X79.154Y-104.822
X80.01Y-103.419
X80.286Y-95.859
X84.489Y-113.615
X85.036Y-126.905
X86.026Y-125.188
X86.074Y-104.836
X86.074Y-126.405
X87.845Y-96.085
X88.492Y-98.431
X89.066Y-92.355
X89.814Y-90.906
X90.132Y-130.159
X90.177Y-131.401
X91.241Y-98.539
X92.71Y-132.697
X93.178Y-98.285
X93.816Y-129.408
X95.88Y-123.245
X97.15Y-130.203
X100.308Y-132.619
X100.701Y-130.205
X101.832Y-122.2
X101.915Y-124.877
X102.056Y-127.996
X105.653Y-107.963
X107.871Y-124.877
X109.324Y-104.534
X113.021Y-132.697
X114.236Y-129.147
X115.601Y-132.622
X116.241Y-129.897
X118.11Y-132.274
X121.667Y-87.37
X122.766Y-111.986
X122.786Y-129.546
X123.738Y-103.773
X125.438Y-104.566
X128.305Y-106.072
X128.982Y-105.291
X130.633Y-106.799
X131.563Y-105.835
X133.093Y-113.527
X133.35Y-131.279
X133.35Y-132.697
X133.352Y-122.603
X135.237Y-115.823
X136.107Y-126.185
X141.953Y-124.624
X144.258Y-126.006
X150.502Y-100.261
T2
X58.42Y-110.57
X58.42Y-115.57
X62.23Y-81.275
X62.23Y-101.595
X63.505Y-109.22
X63.505Y-116.84
X64.77Y-81.275
X64.77Y-101.595
X66.045Y-109.22
X66.045Y-116.84
X67.31Y-81.275
X67.31Y-101.595
X68.585Y-109.22
X68.585Y-116.84
X69.85Y-81.275
X69.85Y-101.595
X71.125Y-109.22
X71.125Y-116.84
X72.39Y-81.275
X72.39Y-101.595
X73.665Y-109.22
X73.665Y-116.84
X74.93Y-81.275
X74.93Y-101.595
X76.205Y-109.22
X76.205Y-116.84
X77.47Y-81.275
X77.47Y-101.595
X78.745Y-109.22
X78.745Y-116.84
X80.01Y-81.275
X80.01Y-101.595
X81.285Y-109.22
X81.285Y-116.84
X82.55Y-81.275
X82.55Y-101.595
X83.825Y-109.22
X83.825Y-116.84
X85.09Y-81.275
X85.09Y-101.595
X86.365Y-109.22
X86.365Y-116.84
X87.63Y-81.275
X87.63Y-101.595
X90.17Y-81.275
X90.17Y-101.595
X92.71Y-81.275
X92.71Y-101.595
X92.71Y-113.03
X92.71Y-120.65
X95.25Y-81.275
X95.25Y-101.595
X95.25Y-109.22
X97.79Y-81.275
X97.79Y-101.595
X97.79Y-113.03
X97.79Y-120.65
X100.25Y-109.22
X100.33Y-81.275
X100.33Y-101.595
X100.33Y-113.03
X100.33Y-120.65
X102.87Y-81.275
X102.87Y-101.595
X102.87Y-113.03
X102.87Y-120.65
X105.41Y-81.275
X105.41Y-101.595
X105.41Y-113.03
X105.41Y-120.65
X107.95Y-81.275
X107.95Y-101.595
X107.95Y-113.03
X107.95Y-120.65
X110.49Y-81.275
X110.49Y-101.595
X110.49Y-113.03
X110.49Y-120.65
X113.03Y-113.03
X113.03Y-120.65
X114.3Y-97.87
X114.3Y-102.87
X115.57Y-113.03
X115.57Y-120.65
X118.11Y-113.03
X118.11Y-120.65
X120.65Y-113.03
X120.65Y-120.65
X128.27Y-107.95
X129.54Y-111.76
X129.54Y-119.38
X132.08Y-111.76
X132.08Y-119.38
X133.27Y-107.95
X134.62Y-111.76
X134.62Y-119.38
X137.16Y-111.76
X137.16Y-119.38
X139.7Y-111.76
X139.7Y-119.38
X142.24Y-111.76
X142.24Y-119.38
X143.51Y-99.14
X143.51Y-104.14
X144.78Y-111.76
X144.78Y-119.38
X147.32Y-80.01
X147.32Y-82.55
X147.32Y-85.09
X147.32Y-87.63
X147.32Y-90.17
X147.32Y-92.71
X147.32Y-95.25
X147.32Y-97.79
X147.32Y-100.33
X147.32Y-102.87
X147.32Y-111.76
X147.32Y-119.38
X149.86Y-111.76
X149.86Y-119.38
X152.4Y-111.76
X152.4Y-119.38
X154.94Y-80.01
X154.94Y-82.55
X154.94Y-85.09
X154.94Y-87.63
X154.94Y-90.17
X154.94Y-92.71
X154.94Y-95.25
X154.94Y-97.79
X154.94Y-100.33
X154.94Y-102.87
T0
M30
