%TF.GenerationSoftware,KiCad,Pcbnew,(6.0.9)*%
%TF.CreationDate,2023-07-19T22:39:06+02:00*%
%TF.ProjectId,Cartucho_MSX_Tang_Nano_20k_V9958,43617274-7563-4686-9f5f-4d53585f5461,rev?*%
%TF.SameCoordinates,Original*%
%TF.FileFunction,Drillmap*%
%TF.FilePolarity,Positive*%
%FSLAX45Y45*%
G04 Gerber Fmt 4.5, Leading zero omitted, Abs format (unit mm)*
G04 Created by KiCad (PCBNEW (6.0.9)) date 2023-07-19 22:39:06*
%MOMM*%
%LPD*%
G01*
G04 APERTURE LIST*
%ADD10C,0.200000*%
%ADD11C,0.040000*%
%ADD12C,0.080000*%
G04 APERTURE END LIST*
D10*
D11*
X7120200Y-10394230D02*
X7160200Y-10434230D01*
X7160200Y-10394230D02*
X7120200Y-10434230D01*
X7895360Y-10462170D02*
X7935360Y-10502170D01*
X7935360Y-10462170D02*
X7895360Y-10502170D01*
X7981050Y-10321910D02*
X8021050Y-10361910D01*
X8021050Y-10321910D02*
X7981050Y-10361910D01*
X8008630Y-9565950D02*
X8048630Y-9605950D01*
X8048630Y-9565950D02*
X8008630Y-9605950D01*
X8428870Y-11341510D02*
X8468870Y-11381510D01*
X8468870Y-11341510D02*
X8428870Y-11381510D01*
X8483590Y-12670500D02*
X8523590Y-12710500D01*
X8523590Y-12670500D02*
X8483590Y-12710500D01*
X8582640Y-12498840D02*
X8622640Y-12538840D01*
X8622640Y-12498840D02*
X8582640Y-12538840D01*
X8587390Y-10463610D02*
X8627390Y-10503610D01*
X8627390Y-10463610D02*
X8587390Y-10503610D01*
X8587410Y-12620490D02*
X8627410Y-12660490D01*
X8627410Y-12620490D02*
X8587410Y-12660490D01*
X8764510Y-9588530D02*
X8804510Y-9628530D01*
X8804510Y-9588530D02*
X8764510Y-9628530D01*
X8829220Y-9823060D02*
X8869220Y-9863060D01*
X8869220Y-9823060D02*
X8829220Y-9863060D01*
X8886630Y-9215460D02*
X8926630Y-9255460D01*
X8926630Y-9215460D02*
X8886630Y-9255460D01*
X8961380Y-9070560D02*
X9001380Y-9110560D01*
X9001380Y-9070560D02*
X8961380Y-9110560D01*
X8993180Y-12995850D02*
X9033180Y-13035850D01*
X9033180Y-12995850D02*
X8993180Y-13035850D01*
X8997730Y-13120100D02*
X9037730Y-13160100D01*
X9037730Y-13120100D02*
X8997730Y-13160100D01*
X9104080Y-9833870D02*
X9144080Y-9873870D01*
X9144080Y-9833870D02*
X9104080Y-9873870D01*
X9251000Y-13249660D02*
X9291000Y-13289660D01*
X9291000Y-13249660D02*
X9251000Y-13289660D01*
X9297780Y-9808510D02*
X9337780Y-9848510D01*
X9337780Y-9808510D02*
X9297780Y-9848510D01*
X9361550Y-12920840D02*
X9401550Y-12960840D01*
X9401550Y-12920840D02*
X9361550Y-12960840D01*
X9568010Y-12304550D02*
X9608010Y-12344550D01*
X9608010Y-12304550D02*
X9568010Y-12344550D01*
X9695020Y-13000340D02*
X9735020Y-13040340D01*
X9735020Y-13000340D02*
X9695020Y-13040340D01*
X10010840Y-13241930D02*
X10050840Y-13281930D01*
X10050840Y-13241930D02*
X10010840Y-13281930D01*
X10050120Y-13000500D02*
X10090120Y-13040500D01*
X10090120Y-13000500D02*
X10050120Y-13040500D01*
X10163200Y-12200010D02*
X10203200Y-12240010D01*
X10203200Y-12200010D02*
X10163200Y-12240010D01*
X10171480Y-12467660D02*
X10211480Y-12507660D01*
X10211480Y-12467660D02*
X10171480Y-12507660D01*
X10185640Y-12779600D02*
X10225640Y-12819600D01*
X10225640Y-12779600D02*
X10185640Y-12819600D01*
X10545290Y-10776270D02*
X10585290Y-10816270D01*
X10585290Y-10776270D02*
X10545290Y-10816270D01*
X10767140Y-12467660D02*
X10807140Y-12507660D01*
X10807140Y-12467660D02*
X10767140Y-12507660D01*
X10912430Y-10433430D02*
X10952430Y-10473430D01*
X10952430Y-10433430D02*
X10912430Y-10473430D01*
X11282060Y-13249660D02*
X11322060Y-13289660D01*
X11322060Y-13249660D02*
X11282060Y-13289660D01*
X11403630Y-12894650D02*
X11443630Y-12934650D01*
X11443630Y-12894650D02*
X11403630Y-12934650D01*
X11540100Y-13242200D02*
X11580100Y-13282200D01*
X11580100Y-13242200D02*
X11540100Y-13282200D01*
X11604070Y-12969670D02*
X11644070Y-13009670D01*
X11644070Y-12969670D02*
X11604070Y-13009670D01*
X11791000Y-13207450D02*
X11831000Y-13247450D01*
X11831000Y-13207450D02*
X11791000Y-13247450D01*
X12146740Y-8717030D02*
X12186740Y-8757030D01*
X12186740Y-8717030D02*
X12146740Y-8757030D01*
X12256640Y-11178590D02*
X12296640Y-11218590D01*
X12296640Y-11178590D02*
X12256640Y-11218590D01*
X12258590Y-12934590D02*
X12298590Y-12974590D01*
X12298590Y-12934590D02*
X12258590Y-12974590D01*
X12353850Y-10357260D02*
X12393850Y-10397260D01*
X12393850Y-10357260D02*
X12353850Y-10397260D01*
X12523750Y-10436620D02*
X12563750Y-10476620D01*
X12563750Y-10436620D02*
X12523750Y-10476620D01*
X12810490Y-10587210D02*
X12850490Y-10627210D01*
X12850490Y-10587210D02*
X12810490Y-10627210D01*
X12878200Y-10509060D02*
X12918200Y-10549060D01*
X12918200Y-10509060D02*
X12878200Y-10549060D01*
X13043330Y-10659950D02*
X13083330Y-10699950D01*
X13083330Y-10659950D02*
X13043330Y-10699950D01*
X13136260Y-10563510D02*
X13176260Y-10603510D01*
X13176260Y-10563510D02*
X13136260Y-10603510D01*
X13289290Y-11332660D02*
X13329290Y-11372660D01*
X13329290Y-11332660D02*
X13289290Y-11372660D01*
X13315000Y-13107920D02*
X13355000Y-13147920D01*
X13355000Y-13107920D02*
X13315000Y-13147920D01*
X13315000Y-13249660D02*
X13355000Y-13289660D01*
X13355000Y-13249660D02*
X13315000Y-13289660D01*
X13315240Y-12240280D02*
X13355240Y-12280280D01*
X13355240Y-12240280D02*
X13315240Y-12280280D01*
X13503670Y-11562290D02*
X13543670Y-11602290D01*
X13543670Y-11562290D02*
X13503670Y-11602290D01*
X13590700Y-12598460D02*
X13630700Y-12638460D01*
X13630700Y-12598460D02*
X13590700Y-12638460D01*
X14175270Y-12442370D02*
X14215270Y-12482370D01*
X14215270Y-12442370D02*
X14175270Y-12482370D01*
X14405800Y-12580630D02*
X14445800Y-12620630D01*
X14445800Y-12580630D02*
X14405800Y-12620630D01*
X15030170Y-10006140D02*
X15070170Y-10046140D01*
X15070170Y-10006140D02*
X15030170Y-10046140D01*
D12*
X5882000Y-11057000D02*
G75*
G03*
X5882000Y-11057000I-40000J0D01*
G01*
X5882000Y-11557000D02*
G75*
G03*
X5882000Y-11557000I-40000J0D01*
G01*
X6263000Y-8127500D02*
G75*
G03*
X6263000Y-8127500I-40000J0D01*
G01*
X6263000Y-10159500D02*
G75*
G03*
X6263000Y-10159500I-40000J0D01*
G01*
X6390500Y-10922000D02*
G75*
G03*
X6390500Y-10922000I-40000J0D01*
G01*
X6390500Y-11684000D02*
G75*
G03*
X6390500Y-11684000I-40000J0D01*
G01*
X6517000Y-8127500D02*
G75*
G03*
X6517000Y-8127500I-40000J0D01*
G01*
X6517000Y-10159500D02*
G75*
G03*
X6517000Y-10159500I-40000J0D01*
G01*
X6644500Y-10922000D02*
G75*
G03*
X6644500Y-10922000I-40000J0D01*
G01*
X6644500Y-11684000D02*
G75*
G03*
X6644500Y-11684000I-40000J0D01*
G01*
X6771000Y-8127500D02*
G75*
G03*
X6771000Y-8127500I-40000J0D01*
G01*
X6771000Y-10159500D02*
G75*
G03*
X6771000Y-10159500I-40000J0D01*
G01*
X6898500Y-10922000D02*
G75*
G03*
X6898500Y-10922000I-40000J0D01*
G01*
X6898500Y-11684000D02*
G75*
G03*
X6898500Y-11684000I-40000J0D01*
G01*
X7025000Y-8127500D02*
G75*
G03*
X7025000Y-8127500I-40000J0D01*
G01*
X7025000Y-10159500D02*
G75*
G03*
X7025000Y-10159500I-40000J0D01*
G01*
X7152500Y-10922000D02*
G75*
G03*
X7152500Y-10922000I-40000J0D01*
G01*
X7152500Y-11684000D02*
G75*
G03*
X7152500Y-11684000I-40000J0D01*
G01*
X7279000Y-8127500D02*
G75*
G03*
X7279000Y-8127500I-40000J0D01*
G01*
X7279000Y-10159500D02*
G75*
G03*
X7279000Y-10159500I-40000J0D01*
G01*
X7406500Y-10922000D02*
G75*
G03*
X7406500Y-10922000I-40000J0D01*
G01*
X7406500Y-11684000D02*
G75*
G03*
X7406500Y-11684000I-40000J0D01*
G01*
X7533000Y-8127500D02*
G75*
G03*
X7533000Y-8127500I-40000J0D01*
G01*
X7533000Y-10159500D02*
G75*
G03*
X7533000Y-10159500I-40000J0D01*
G01*
X7660500Y-10922000D02*
G75*
G03*
X7660500Y-10922000I-40000J0D01*
G01*
X7660500Y-11684000D02*
G75*
G03*
X7660500Y-11684000I-40000J0D01*
G01*
X7787000Y-8127500D02*
G75*
G03*
X7787000Y-8127500I-40000J0D01*
G01*
X7787000Y-10159500D02*
G75*
G03*
X7787000Y-10159500I-40000J0D01*
G01*
X7914500Y-10922000D02*
G75*
G03*
X7914500Y-10922000I-40000J0D01*
G01*
X7914500Y-11684000D02*
G75*
G03*
X7914500Y-11684000I-40000J0D01*
G01*
X8041000Y-8127500D02*
G75*
G03*
X8041000Y-8127500I-40000J0D01*
G01*
X8041000Y-10159500D02*
G75*
G03*
X8041000Y-10159500I-40000J0D01*
G01*
X8168500Y-10922000D02*
G75*
G03*
X8168500Y-10922000I-40000J0D01*
G01*
X8168500Y-11684000D02*
G75*
G03*
X8168500Y-11684000I-40000J0D01*
G01*
X8295000Y-8127500D02*
G75*
G03*
X8295000Y-8127500I-40000J0D01*
G01*
X8295000Y-10159500D02*
G75*
G03*
X8295000Y-10159500I-40000J0D01*
G01*
X8422500Y-10922000D02*
G75*
G03*
X8422500Y-10922000I-40000J0D01*
G01*
X8422500Y-11684000D02*
G75*
G03*
X8422500Y-11684000I-40000J0D01*
G01*
X8549000Y-8127500D02*
G75*
G03*
X8549000Y-8127500I-40000J0D01*
G01*
X8549000Y-10159500D02*
G75*
G03*
X8549000Y-10159500I-40000J0D01*
G01*
X8676500Y-10922000D02*
G75*
G03*
X8676500Y-10922000I-40000J0D01*
G01*
X8676500Y-11684000D02*
G75*
G03*
X8676500Y-11684000I-40000J0D01*
G01*
X8803000Y-8127500D02*
G75*
G03*
X8803000Y-8127500I-40000J0D01*
G01*
X8803000Y-10159500D02*
G75*
G03*
X8803000Y-10159500I-40000J0D01*
G01*
X9057000Y-8127500D02*
G75*
G03*
X9057000Y-8127500I-40000J0D01*
G01*
X9057000Y-10159500D02*
G75*
G03*
X9057000Y-10159500I-40000J0D01*
G01*
X9311000Y-8127500D02*
G75*
G03*
X9311000Y-8127500I-40000J0D01*
G01*
X9311000Y-10159500D02*
G75*
G03*
X9311000Y-10159500I-40000J0D01*
G01*
X9311000Y-11303000D02*
G75*
G03*
X9311000Y-11303000I-40000J0D01*
G01*
X9311000Y-12065000D02*
G75*
G03*
X9311000Y-12065000I-40000J0D01*
G01*
X9565000Y-8127500D02*
G75*
G03*
X9565000Y-8127500I-40000J0D01*
G01*
X9565000Y-10159500D02*
G75*
G03*
X9565000Y-10159500I-40000J0D01*
G01*
X9565000Y-10922000D02*
G75*
G03*
X9565000Y-10922000I-40000J0D01*
G01*
X9819000Y-8127500D02*
G75*
G03*
X9819000Y-8127500I-40000J0D01*
G01*
X9819000Y-10159500D02*
G75*
G03*
X9819000Y-10159500I-40000J0D01*
G01*
X9819000Y-11303000D02*
G75*
G03*
X9819000Y-11303000I-40000J0D01*
G01*
X9819000Y-12065000D02*
G75*
G03*
X9819000Y-12065000I-40000J0D01*
G01*
X10065000Y-10922000D02*
G75*
G03*
X10065000Y-10922000I-40000J0D01*
G01*
X10073000Y-8127500D02*
G75*
G03*
X10073000Y-8127500I-40000J0D01*
G01*
X10073000Y-10159500D02*
G75*
G03*
X10073000Y-10159500I-40000J0D01*
G01*
X10073000Y-11303000D02*
G75*
G03*
X10073000Y-11303000I-40000J0D01*
G01*
X10073000Y-12065000D02*
G75*
G03*
X10073000Y-12065000I-40000J0D01*
G01*
X10327000Y-8127500D02*
G75*
G03*
X10327000Y-8127500I-40000J0D01*
G01*
X10327000Y-10159500D02*
G75*
G03*
X10327000Y-10159500I-40000J0D01*
G01*
X10327000Y-11303000D02*
G75*
G03*
X10327000Y-11303000I-40000J0D01*
G01*
X10327000Y-12065000D02*
G75*
G03*
X10327000Y-12065000I-40000J0D01*
G01*
X10581000Y-8127500D02*
G75*
G03*
X10581000Y-8127500I-40000J0D01*
G01*
X10581000Y-10159500D02*
G75*
G03*
X10581000Y-10159500I-40000J0D01*
G01*
X10581000Y-11303000D02*
G75*
G03*
X10581000Y-11303000I-40000J0D01*
G01*
X10581000Y-12065000D02*
G75*
G03*
X10581000Y-12065000I-40000J0D01*
G01*
X10835000Y-8127500D02*
G75*
G03*
X10835000Y-8127500I-40000J0D01*
G01*
X10835000Y-10159500D02*
G75*
G03*
X10835000Y-10159500I-40000J0D01*
G01*
X10835000Y-11303000D02*
G75*
G03*
X10835000Y-11303000I-40000J0D01*
G01*
X10835000Y-12065000D02*
G75*
G03*
X10835000Y-12065000I-40000J0D01*
G01*
X11089000Y-8127500D02*
G75*
G03*
X11089000Y-8127500I-40000J0D01*
G01*
X11089000Y-10159500D02*
G75*
G03*
X11089000Y-10159500I-40000J0D01*
G01*
X11089000Y-11303000D02*
G75*
G03*
X11089000Y-11303000I-40000J0D01*
G01*
X11089000Y-12065000D02*
G75*
G03*
X11089000Y-12065000I-40000J0D01*
G01*
X11343000Y-11303000D02*
G75*
G03*
X11343000Y-11303000I-40000J0D01*
G01*
X11343000Y-12065000D02*
G75*
G03*
X11343000Y-12065000I-40000J0D01*
G01*
X11470000Y-9787000D02*
G75*
G03*
X11470000Y-9787000I-40000J0D01*
G01*
X11470000Y-10287000D02*
G75*
G03*
X11470000Y-10287000I-40000J0D01*
G01*
X11597000Y-11303000D02*
G75*
G03*
X11597000Y-11303000I-40000J0D01*
G01*
X11597000Y-12065000D02*
G75*
G03*
X11597000Y-12065000I-40000J0D01*
G01*
X11851000Y-11303000D02*
G75*
G03*
X11851000Y-11303000I-40000J0D01*
G01*
X11851000Y-12065000D02*
G75*
G03*
X11851000Y-12065000I-40000J0D01*
G01*
X12105000Y-11303000D02*
G75*
G03*
X12105000Y-11303000I-40000J0D01*
G01*
X12105000Y-12065000D02*
G75*
G03*
X12105000Y-12065000I-40000J0D01*
G01*
X12867000Y-10795000D02*
G75*
G03*
X12867000Y-10795000I-40000J0D01*
G01*
X12994000Y-11176000D02*
G75*
G03*
X12994000Y-11176000I-40000J0D01*
G01*
X12994000Y-11938000D02*
G75*
G03*
X12994000Y-11938000I-40000J0D01*
G01*
X13248000Y-11176000D02*
G75*
G03*
X13248000Y-11176000I-40000J0D01*
G01*
X13248000Y-11938000D02*
G75*
G03*
X13248000Y-11938000I-40000J0D01*
G01*
X13367000Y-10795000D02*
G75*
G03*
X13367000Y-10795000I-40000J0D01*
G01*
X13502000Y-11176000D02*
G75*
G03*
X13502000Y-11176000I-40000J0D01*
G01*
X13502000Y-11938000D02*
G75*
G03*
X13502000Y-11938000I-40000J0D01*
G01*
X13756000Y-11176000D02*
G75*
G03*
X13756000Y-11176000I-40000J0D01*
G01*
X13756000Y-11938000D02*
G75*
G03*
X13756000Y-11938000I-40000J0D01*
G01*
X14010000Y-11176000D02*
G75*
G03*
X14010000Y-11176000I-40000J0D01*
G01*
X14010000Y-11938000D02*
G75*
G03*
X14010000Y-11938000I-40000J0D01*
G01*
X14264000Y-11176000D02*
G75*
G03*
X14264000Y-11176000I-40000J0D01*
G01*
X14264000Y-11938000D02*
G75*
G03*
X14264000Y-11938000I-40000J0D01*
G01*
X14391000Y-9914000D02*
G75*
G03*
X14391000Y-9914000I-40000J0D01*
G01*
X14391000Y-10414000D02*
G75*
G03*
X14391000Y-10414000I-40000J0D01*
G01*
X14518000Y-11176000D02*
G75*
G03*
X14518000Y-11176000I-40000J0D01*
G01*
X14518000Y-11938000D02*
G75*
G03*
X14518000Y-11938000I-40000J0D01*
G01*
X14772000Y-8001000D02*
G75*
G03*
X14772000Y-8001000I-40000J0D01*
G01*
X14772000Y-8255000D02*
G75*
G03*
X14772000Y-8255000I-40000J0D01*
G01*
X14772000Y-8509000D02*
G75*
G03*
X14772000Y-8509000I-40000J0D01*
G01*
X14772000Y-8763000D02*
G75*
G03*
X14772000Y-8763000I-40000J0D01*
G01*
X14772000Y-9017000D02*
G75*
G03*
X14772000Y-9017000I-40000J0D01*
G01*
X14772000Y-9271000D02*
G75*
G03*
X14772000Y-9271000I-40000J0D01*
G01*
X14772000Y-9525000D02*
G75*
G03*
X14772000Y-9525000I-40000J0D01*
G01*
X14772000Y-9779000D02*
G75*
G03*
X14772000Y-9779000I-40000J0D01*
G01*
X14772000Y-10033000D02*
G75*
G03*
X14772000Y-10033000I-40000J0D01*
G01*
X14772000Y-10287000D02*
G75*
G03*
X14772000Y-10287000I-40000J0D01*
G01*
X14772000Y-11176000D02*
G75*
G03*
X14772000Y-11176000I-40000J0D01*
G01*
X14772000Y-11938000D02*
G75*
G03*
X14772000Y-11938000I-40000J0D01*
G01*
X15026000Y-11176000D02*
G75*
G03*
X15026000Y-11176000I-40000J0D01*
G01*
X15026000Y-11938000D02*
G75*
G03*
X15026000Y-11938000I-40000J0D01*
G01*
X15280000Y-11176000D02*
G75*
G03*
X15280000Y-11176000I-40000J0D01*
G01*
X15280000Y-11938000D02*
G75*
G03*
X15280000Y-11938000I-40000J0D01*
G01*
X15534000Y-8001000D02*
G75*
G03*
X15534000Y-8001000I-40000J0D01*
G01*
X15534000Y-8255000D02*
G75*
G03*
X15534000Y-8255000I-40000J0D01*
G01*
X15534000Y-8509000D02*
G75*
G03*
X15534000Y-8509000I-40000J0D01*
G01*
X15534000Y-8763000D02*
G75*
G03*
X15534000Y-8763000I-40000J0D01*
G01*
X15534000Y-9017000D02*
G75*
G03*
X15534000Y-9017000I-40000J0D01*
G01*
X15534000Y-9271000D02*
G75*
G03*
X15534000Y-9271000I-40000J0D01*
G01*
X15534000Y-9525000D02*
G75*
G03*
X15534000Y-9525000I-40000J0D01*
G01*
X15534000Y-9779000D02*
G75*
G03*
X15534000Y-9779000I-40000J0D01*
G01*
X15534000Y-10033000D02*
G75*
G03*
X15534000Y-10033000I-40000J0D01*
G01*
X15534000Y-10287000D02*
G75*
G03*
X15534000Y-10287000I-40000J0D01*
G01*
D10*
X5896419Y-14674176D02*
X5896419Y-14474176D01*
X5944038Y-14474176D01*
X5972609Y-14483700D01*
X5991657Y-14502748D01*
X6001181Y-14521795D01*
X6010705Y-14559890D01*
X6010705Y-14588462D01*
X6001181Y-14626557D01*
X5991657Y-14645605D01*
X5972609Y-14664652D01*
X5944038Y-14674176D01*
X5896419Y-14674176D01*
X6096419Y-14674176D02*
X6096419Y-14540843D01*
X6096419Y-14578938D02*
X6105943Y-14559890D01*
X6115467Y-14550367D01*
X6134514Y-14540843D01*
X6153562Y-14540843D01*
X6220228Y-14674176D02*
X6220228Y-14540843D01*
X6220228Y-14474176D02*
X6210705Y-14483700D01*
X6220228Y-14493224D01*
X6229752Y-14483700D01*
X6220228Y-14474176D01*
X6220228Y-14493224D01*
X6344038Y-14674176D02*
X6324990Y-14664652D01*
X6315467Y-14645605D01*
X6315467Y-14474176D01*
X6448800Y-14674176D02*
X6429752Y-14664652D01*
X6420228Y-14645605D01*
X6420228Y-14474176D01*
X6677371Y-14674176D02*
X6677371Y-14474176D01*
X6744038Y-14617033D01*
X6810705Y-14474176D01*
X6810705Y-14674176D01*
X6991657Y-14674176D02*
X6991657Y-14569414D01*
X6982133Y-14550367D01*
X6963086Y-14540843D01*
X6924990Y-14540843D01*
X6905943Y-14550367D01*
X6991657Y-14664652D02*
X6972609Y-14674176D01*
X6924990Y-14674176D01*
X6905943Y-14664652D01*
X6896419Y-14645605D01*
X6896419Y-14626557D01*
X6905943Y-14607509D01*
X6924990Y-14597986D01*
X6972609Y-14597986D01*
X6991657Y-14588462D01*
X7086895Y-14540843D02*
X7086895Y-14740843D01*
X7086895Y-14550367D02*
X7105943Y-14540843D01*
X7144038Y-14540843D01*
X7163086Y-14550367D01*
X7172609Y-14559890D01*
X7182133Y-14578938D01*
X7182133Y-14636081D01*
X7172609Y-14655128D01*
X7163086Y-14664652D01*
X7144038Y-14674176D01*
X7105943Y-14674176D01*
X7086895Y-14664652D01*
X7267848Y-14655128D02*
X7277371Y-14664652D01*
X7267848Y-14674176D01*
X7258324Y-14664652D01*
X7267848Y-14655128D01*
X7267848Y-14674176D01*
X7267848Y-14550367D02*
X7277371Y-14559890D01*
X7267848Y-14569414D01*
X7258324Y-14559890D01*
X7267848Y-14550367D01*
X7267848Y-14569414D01*
D11*
X5598800Y-14983700D02*
X5638800Y-15023700D01*
X5638800Y-14983700D02*
X5598800Y-15023700D01*
D10*
X5934514Y-14894176D02*
X5953562Y-14894176D01*
X5972609Y-14903700D01*
X5982133Y-14913224D01*
X5991657Y-14932271D01*
X6001181Y-14970367D01*
X6001181Y-15017986D01*
X5991657Y-15056081D01*
X5982133Y-15075128D01*
X5972609Y-15084652D01*
X5953562Y-15094176D01*
X5934514Y-15094176D01*
X5915467Y-15084652D01*
X5905943Y-15075128D01*
X5896419Y-15056081D01*
X5886895Y-15017986D01*
X5886895Y-14970367D01*
X5896419Y-14932271D01*
X5905943Y-14913224D01*
X5915467Y-14903700D01*
X5934514Y-14894176D01*
X6086895Y-15075128D02*
X6096419Y-15084652D01*
X6086895Y-15094176D01*
X6077371Y-15084652D01*
X6086895Y-15075128D01*
X6086895Y-15094176D01*
X6267848Y-14960843D02*
X6267848Y-15094176D01*
X6220228Y-14884652D02*
X6172609Y-15027509D01*
X6296419Y-15027509D01*
X6410705Y-14894176D02*
X6429752Y-14894176D01*
X6448800Y-14903700D01*
X6458324Y-14913224D01*
X6467848Y-14932271D01*
X6477371Y-14970367D01*
X6477371Y-15017986D01*
X6467848Y-15056081D01*
X6458324Y-15075128D01*
X6448800Y-15084652D01*
X6429752Y-15094176D01*
X6410705Y-15094176D01*
X6391657Y-15084652D01*
X6382133Y-15075128D01*
X6372609Y-15056081D01*
X6363086Y-15017986D01*
X6363086Y-14970367D01*
X6372609Y-14932271D01*
X6382133Y-14913224D01*
X6391657Y-14903700D01*
X6410705Y-14894176D01*
X6601181Y-14894176D02*
X6620228Y-14894176D01*
X6639276Y-14903700D01*
X6648800Y-14913224D01*
X6658324Y-14932271D01*
X6667848Y-14970367D01*
X6667848Y-15017986D01*
X6658324Y-15056081D01*
X6648800Y-15075128D01*
X6639276Y-15084652D01*
X6620228Y-15094176D01*
X6601181Y-15094176D01*
X6582133Y-15084652D01*
X6572609Y-15075128D01*
X6563086Y-15056081D01*
X6553562Y-15017986D01*
X6553562Y-14970367D01*
X6563086Y-14932271D01*
X6572609Y-14913224D01*
X6582133Y-14903700D01*
X6601181Y-14894176D01*
X6753562Y-15094176D02*
X6753562Y-14960843D01*
X6753562Y-14979890D02*
X6763086Y-14970367D01*
X6782133Y-14960843D01*
X6810705Y-14960843D01*
X6829752Y-14970367D01*
X6839276Y-14989414D01*
X6839276Y-15094176D01*
X6839276Y-14989414D02*
X6848800Y-14970367D01*
X6867848Y-14960843D01*
X6896419Y-14960843D01*
X6915467Y-14970367D01*
X6924990Y-14989414D01*
X6924990Y-15094176D01*
X7020228Y-15094176D02*
X7020228Y-14960843D01*
X7020228Y-14979890D02*
X7029752Y-14970367D01*
X7048800Y-14960843D01*
X7077371Y-14960843D01*
X7096419Y-14970367D01*
X7105943Y-14989414D01*
X7105943Y-15094176D01*
X7105943Y-14989414D02*
X7115467Y-14970367D01*
X7134514Y-14960843D01*
X7163086Y-14960843D01*
X7182133Y-14970367D01*
X7191657Y-14989414D01*
X7191657Y-15094176D01*
X7582133Y-14884652D02*
X7410705Y-15141795D01*
X7839276Y-14894176D02*
X7858324Y-14894176D01*
X7877371Y-14903700D01*
X7886895Y-14913224D01*
X7896419Y-14932271D01*
X7905943Y-14970367D01*
X7905943Y-15017986D01*
X7896419Y-15056081D01*
X7886895Y-15075128D01*
X7877371Y-15084652D01*
X7858324Y-15094176D01*
X7839276Y-15094176D01*
X7820228Y-15084652D01*
X7810705Y-15075128D01*
X7801181Y-15056081D01*
X7791657Y-15017986D01*
X7791657Y-14970367D01*
X7801181Y-14932271D01*
X7810705Y-14913224D01*
X7820228Y-14903700D01*
X7839276Y-14894176D01*
X7991657Y-15075128D02*
X8001181Y-15084652D01*
X7991657Y-15094176D01*
X7982133Y-15084652D01*
X7991657Y-15075128D01*
X7991657Y-15094176D01*
X8124990Y-14894176D02*
X8144038Y-14894176D01*
X8163086Y-14903700D01*
X8172609Y-14913224D01*
X8182133Y-14932271D01*
X8191657Y-14970367D01*
X8191657Y-15017986D01*
X8182133Y-15056081D01*
X8172609Y-15075128D01*
X8163086Y-15084652D01*
X8144038Y-15094176D01*
X8124990Y-15094176D01*
X8105943Y-15084652D01*
X8096419Y-15075128D01*
X8086895Y-15056081D01*
X8077371Y-15017986D01*
X8077371Y-14970367D01*
X8086895Y-14932271D01*
X8096419Y-14913224D01*
X8105943Y-14903700D01*
X8124990Y-14894176D01*
X8382133Y-15094176D02*
X8267848Y-15094176D01*
X8324990Y-15094176D02*
X8324990Y-14894176D01*
X8305943Y-14922748D01*
X8286895Y-14941795D01*
X8267848Y-14951319D01*
X8563086Y-14894176D02*
X8467848Y-14894176D01*
X8458324Y-14989414D01*
X8467848Y-14979890D01*
X8486895Y-14970367D01*
X8534514Y-14970367D01*
X8553562Y-14979890D01*
X8563086Y-14989414D01*
X8572610Y-15008462D01*
X8572610Y-15056081D01*
X8563086Y-15075128D01*
X8553562Y-15084652D01*
X8534514Y-15094176D01*
X8486895Y-15094176D01*
X8467848Y-15084652D01*
X8458324Y-15075128D01*
X8639276Y-14894176D02*
X8772610Y-14894176D01*
X8686895Y-15094176D01*
X8839276Y-14894176D02*
X8839276Y-14932271D01*
X8915467Y-14894176D02*
X8915467Y-14932271D01*
X9210705Y-15170367D02*
X9201181Y-15160843D01*
X9182133Y-15132271D01*
X9172610Y-15113224D01*
X9163086Y-15084652D01*
X9153562Y-15037033D01*
X9153562Y-14998938D01*
X9163086Y-14951319D01*
X9172610Y-14922748D01*
X9182133Y-14903700D01*
X9201181Y-14875128D01*
X9210705Y-14865605D01*
X9382133Y-14894176D02*
X9286895Y-14894176D01*
X9277371Y-14989414D01*
X9286895Y-14979890D01*
X9305943Y-14970367D01*
X9353562Y-14970367D01*
X9372610Y-14979890D01*
X9382133Y-14989414D01*
X9391657Y-15008462D01*
X9391657Y-15056081D01*
X9382133Y-15075128D01*
X9372610Y-15084652D01*
X9353562Y-15094176D01*
X9305943Y-15094176D01*
X9286895Y-15084652D01*
X9277371Y-15075128D01*
X9467848Y-14913224D02*
X9477371Y-14903700D01*
X9496419Y-14894176D01*
X9544038Y-14894176D01*
X9563086Y-14903700D01*
X9572610Y-14913224D01*
X9582133Y-14932271D01*
X9582133Y-14951319D01*
X9572610Y-14979890D01*
X9458324Y-15094176D01*
X9582133Y-15094176D01*
X9820229Y-15094176D02*
X9820229Y-14894176D01*
X9905943Y-15094176D02*
X9905943Y-14989414D01*
X9896419Y-14970367D01*
X9877371Y-14960843D01*
X9848800Y-14960843D01*
X9829752Y-14970367D01*
X9820229Y-14979890D01*
X10029752Y-15094176D02*
X10010705Y-15084652D01*
X10001181Y-15075128D01*
X9991657Y-15056081D01*
X9991657Y-14998938D01*
X10001181Y-14979890D01*
X10010705Y-14970367D01*
X10029752Y-14960843D01*
X10058324Y-14960843D01*
X10077371Y-14970367D01*
X10086895Y-14979890D01*
X10096419Y-14998938D01*
X10096419Y-15056081D01*
X10086895Y-15075128D01*
X10077371Y-15084652D01*
X10058324Y-15094176D01*
X10029752Y-15094176D01*
X10210705Y-15094176D02*
X10191657Y-15084652D01*
X10182133Y-15065605D01*
X10182133Y-14894176D01*
X10363086Y-15084652D02*
X10344038Y-15094176D01*
X10305943Y-15094176D01*
X10286895Y-15084652D01*
X10277371Y-15065605D01*
X10277371Y-14989414D01*
X10286895Y-14970367D01*
X10305943Y-14960843D01*
X10344038Y-14960843D01*
X10363086Y-14970367D01*
X10372610Y-14989414D01*
X10372610Y-15008462D01*
X10277371Y-15027509D01*
X10448800Y-15084652D02*
X10467848Y-15094176D01*
X10505943Y-15094176D01*
X10524990Y-15084652D01*
X10534514Y-15065605D01*
X10534514Y-15056081D01*
X10524990Y-15037033D01*
X10505943Y-15027509D01*
X10477371Y-15027509D01*
X10458324Y-15017986D01*
X10448800Y-14998938D01*
X10448800Y-14989414D01*
X10458324Y-14970367D01*
X10477371Y-14960843D01*
X10505943Y-14960843D01*
X10524990Y-14970367D01*
X10601181Y-15170367D02*
X10610705Y-15160843D01*
X10629752Y-15132271D01*
X10639276Y-15113224D01*
X10648800Y-15084652D01*
X10658324Y-15037033D01*
X10658324Y-14998938D01*
X10648800Y-14951319D01*
X10639276Y-14922748D01*
X10629752Y-14903700D01*
X10610705Y-14875128D01*
X10601181Y-14865605D01*
D12*
X5638800Y-15267700D02*
G75*
G03*
X5638800Y-15267700I-40000J0D01*
G01*
D10*
X5934514Y-15158176D02*
X5953562Y-15158176D01*
X5972609Y-15167700D01*
X5982133Y-15177224D01*
X5991657Y-15196271D01*
X6001181Y-15234367D01*
X6001181Y-15281986D01*
X5991657Y-15320081D01*
X5982133Y-15339128D01*
X5972609Y-15348652D01*
X5953562Y-15358176D01*
X5934514Y-15358176D01*
X5915467Y-15348652D01*
X5905943Y-15339128D01*
X5896419Y-15320081D01*
X5886895Y-15281986D01*
X5886895Y-15234367D01*
X5896419Y-15196271D01*
X5905943Y-15177224D01*
X5915467Y-15167700D01*
X5934514Y-15158176D01*
X6086895Y-15339128D02*
X6096419Y-15348652D01*
X6086895Y-15358176D01*
X6077371Y-15348652D01*
X6086895Y-15339128D01*
X6086895Y-15358176D01*
X6210705Y-15243890D02*
X6191657Y-15234367D01*
X6182133Y-15224843D01*
X6172609Y-15205795D01*
X6172609Y-15196271D01*
X6182133Y-15177224D01*
X6191657Y-15167700D01*
X6210705Y-15158176D01*
X6248800Y-15158176D01*
X6267848Y-15167700D01*
X6277371Y-15177224D01*
X6286895Y-15196271D01*
X6286895Y-15205795D01*
X6277371Y-15224843D01*
X6267848Y-15234367D01*
X6248800Y-15243890D01*
X6210705Y-15243890D01*
X6191657Y-15253414D01*
X6182133Y-15262938D01*
X6172609Y-15281986D01*
X6172609Y-15320081D01*
X6182133Y-15339128D01*
X6191657Y-15348652D01*
X6210705Y-15358176D01*
X6248800Y-15358176D01*
X6267848Y-15348652D01*
X6277371Y-15339128D01*
X6286895Y-15320081D01*
X6286895Y-15281986D01*
X6277371Y-15262938D01*
X6267848Y-15253414D01*
X6248800Y-15243890D01*
X6410705Y-15158176D02*
X6429752Y-15158176D01*
X6448800Y-15167700D01*
X6458324Y-15177224D01*
X6467848Y-15196271D01*
X6477371Y-15234367D01*
X6477371Y-15281986D01*
X6467848Y-15320081D01*
X6458324Y-15339128D01*
X6448800Y-15348652D01*
X6429752Y-15358176D01*
X6410705Y-15358176D01*
X6391657Y-15348652D01*
X6382133Y-15339128D01*
X6372609Y-15320081D01*
X6363086Y-15281986D01*
X6363086Y-15234367D01*
X6372609Y-15196271D01*
X6382133Y-15177224D01*
X6391657Y-15167700D01*
X6410705Y-15158176D01*
X6601181Y-15158176D02*
X6620228Y-15158176D01*
X6639276Y-15167700D01*
X6648800Y-15177224D01*
X6658324Y-15196271D01*
X6667848Y-15234367D01*
X6667848Y-15281986D01*
X6658324Y-15320081D01*
X6648800Y-15339128D01*
X6639276Y-15348652D01*
X6620228Y-15358176D01*
X6601181Y-15358176D01*
X6582133Y-15348652D01*
X6572609Y-15339128D01*
X6563086Y-15320081D01*
X6553562Y-15281986D01*
X6553562Y-15234367D01*
X6563086Y-15196271D01*
X6572609Y-15177224D01*
X6582133Y-15167700D01*
X6601181Y-15158176D01*
X6753562Y-15358176D02*
X6753562Y-15224843D01*
X6753562Y-15243890D02*
X6763086Y-15234367D01*
X6782133Y-15224843D01*
X6810705Y-15224843D01*
X6829752Y-15234367D01*
X6839276Y-15253414D01*
X6839276Y-15358176D01*
X6839276Y-15253414D02*
X6848800Y-15234367D01*
X6867848Y-15224843D01*
X6896419Y-15224843D01*
X6915467Y-15234367D01*
X6924990Y-15253414D01*
X6924990Y-15358176D01*
X7020228Y-15358176D02*
X7020228Y-15224843D01*
X7020228Y-15243890D02*
X7029752Y-15234367D01*
X7048800Y-15224843D01*
X7077371Y-15224843D01*
X7096419Y-15234367D01*
X7105943Y-15253414D01*
X7105943Y-15358176D01*
X7105943Y-15253414D02*
X7115467Y-15234367D01*
X7134514Y-15224843D01*
X7163086Y-15224843D01*
X7182133Y-15234367D01*
X7191657Y-15253414D01*
X7191657Y-15358176D01*
X7582133Y-15148652D02*
X7410705Y-15405795D01*
X7839276Y-15158176D02*
X7858324Y-15158176D01*
X7877371Y-15167700D01*
X7886895Y-15177224D01*
X7896419Y-15196271D01*
X7905943Y-15234367D01*
X7905943Y-15281986D01*
X7896419Y-15320081D01*
X7886895Y-15339128D01*
X7877371Y-15348652D01*
X7858324Y-15358176D01*
X7839276Y-15358176D01*
X7820228Y-15348652D01*
X7810705Y-15339128D01*
X7801181Y-15320081D01*
X7791657Y-15281986D01*
X7791657Y-15234367D01*
X7801181Y-15196271D01*
X7810705Y-15177224D01*
X7820228Y-15167700D01*
X7839276Y-15158176D01*
X7991657Y-15339128D02*
X8001181Y-15348652D01*
X7991657Y-15358176D01*
X7982133Y-15348652D01*
X7991657Y-15339128D01*
X7991657Y-15358176D01*
X8124990Y-15158176D02*
X8144038Y-15158176D01*
X8163086Y-15167700D01*
X8172609Y-15177224D01*
X8182133Y-15196271D01*
X8191657Y-15234367D01*
X8191657Y-15281986D01*
X8182133Y-15320081D01*
X8172609Y-15339128D01*
X8163086Y-15348652D01*
X8144038Y-15358176D01*
X8124990Y-15358176D01*
X8105943Y-15348652D01*
X8096419Y-15339128D01*
X8086895Y-15320081D01*
X8077371Y-15281986D01*
X8077371Y-15234367D01*
X8086895Y-15196271D01*
X8096419Y-15177224D01*
X8105943Y-15167700D01*
X8124990Y-15158176D01*
X8258324Y-15158176D02*
X8382133Y-15158176D01*
X8315467Y-15234367D01*
X8344038Y-15234367D01*
X8363086Y-15243890D01*
X8372609Y-15253414D01*
X8382133Y-15272462D01*
X8382133Y-15320081D01*
X8372609Y-15339128D01*
X8363086Y-15348652D01*
X8344038Y-15358176D01*
X8286895Y-15358176D01*
X8267848Y-15348652D01*
X8258324Y-15339128D01*
X8572610Y-15358176D02*
X8458324Y-15358176D01*
X8515467Y-15358176D02*
X8515467Y-15158176D01*
X8496419Y-15186748D01*
X8477371Y-15205795D01*
X8458324Y-15215319D01*
X8753562Y-15158176D02*
X8658324Y-15158176D01*
X8648800Y-15253414D01*
X8658324Y-15243890D01*
X8677371Y-15234367D01*
X8724990Y-15234367D01*
X8744038Y-15243890D01*
X8753562Y-15253414D01*
X8763086Y-15272462D01*
X8763086Y-15320081D01*
X8753562Y-15339128D01*
X8744038Y-15348652D01*
X8724990Y-15358176D01*
X8677371Y-15358176D01*
X8658324Y-15348652D01*
X8648800Y-15339128D01*
X8839276Y-15158176D02*
X8839276Y-15196271D01*
X8915467Y-15158176D02*
X8915467Y-15196271D01*
X9210705Y-15434367D02*
X9201181Y-15424843D01*
X9182133Y-15396271D01*
X9172610Y-15377224D01*
X9163086Y-15348652D01*
X9153562Y-15301033D01*
X9153562Y-15262938D01*
X9163086Y-15215319D01*
X9172610Y-15186748D01*
X9182133Y-15167700D01*
X9201181Y-15139128D01*
X9210705Y-15129605D01*
X9391657Y-15358176D02*
X9277371Y-15358176D01*
X9334514Y-15358176D02*
X9334514Y-15158176D01*
X9315467Y-15186748D01*
X9296419Y-15205795D01*
X9277371Y-15215319D01*
X9458324Y-15158176D02*
X9582133Y-15158176D01*
X9515467Y-15234367D01*
X9544038Y-15234367D01*
X9563086Y-15243890D01*
X9572610Y-15253414D01*
X9582133Y-15272462D01*
X9582133Y-15320081D01*
X9572610Y-15339128D01*
X9563086Y-15348652D01*
X9544038Y-15358176D01*
X9486895Y-15358176D01*
X9467848Y-15348652D01*
X9458324Y-15339128D01*
X9658324Y-15177224D02*
X9667848Y-15167700D01*
X9686895Y-15158176D01*
X9734514Y-15158176D01*
X9753562Y-15167700D01*
X9763086Y-15177224D01*
X9772610Y-15196271D01*
X9772610Y-15215319D01*
X9763086Y-15243890D01*
X9648800Y-15358176D01*
X9772610Y-15358176D01*
X10010705Y-15358176D02*
X10010705Y-15158176D01*
X10096419Y-15358176D02*
X10096419Y-15253414D01*
X10086895Y-15234367D01*
X10067848Y-15224843D01*
X10039276Y-15224843D01*
X10020229Y-15234367D01*
X10010705Y-15243890D01*
X10220229Y-15358176D02*
X10201181Y-15348652D01*
X10191657Y-15339128D01*
X10182133Y-15320081D01*
X10182133Y-15262938D01*
X10191657Y-15243890D01*
X10201181Y-15234367D01*
X10220229Y-15224843D01*
X10248800Y-15224843D01*
X10267848Y-15234367D01*
X10277371Y-15243890D01*
X10286895Y-15262938D01*
X10286895Y-15320081D01*
X10277371Y-15339128D01*
X10267848Y-15348652D01*
X10248800Y-15358176D01*
X10220229Y-15358176D01*
X10401181Y-15358176D02*
X10382133Y-15348652D01*
X10372610Y-15329605D01*
X10372610Y-15158176D01*
X10553562Y-15348652D02*
X10534514Y-15358176D01*
X10496419Y-15358176D01*
X10477371Y-15348652D01*
X10467848Y-15329605D01*
X10467848Y-15253414D01*
X10477371Y-15234367D01*
X10496419Y-15224843D01*
X10534514Y-15224843D01*
X10553562Y-15234367D01*
X10563086Y-15253414D01*
X10563086Y-15272462D01*
X10467848Y-15291509D01*
X10639276Y-15348652D02*
X10658324Y-15358176D01*
X10696419Y-15358176D01*
X10715467Y-15348652D01*
X10724990Y-15329605D01*
X10724990Y-15320081D01*
X10715467Y-15301033D01*
X10696419Y-15291509D01*
X10667848Y-15291509D01*
X10648800Y-15281986D01*
X10639276Y-15262938D01*
X10639276Y-15253414D01*
X10648800Y-15234367D01*
X10667848Y-15224843D01*
X10696419Y-15224843D01*
X10715467Y-15234367D01*
X10791657Y-15434367D02*
X10801181Y-15424843D01*
X10820229Y-15396271D01*
X10829752Y-15377224D01*
X10839276Y-15348652D01*
X10848800Y-15301033D01*
X10848800Y-15262938D01*
X10839276Y-15215319D01*
X10829752Y-15186748D01*
X10820229Y-15167700D01*
X10801181Y-15139128D01*
X10791657Y-15129605D01*
M02*
