G04 #@! TF.GenerationSoftware,KiCad,Pcbnew,(6.0.9)*
G04 #@! TF.CreationDate,2023-07-19T22:39:00+02:00*
G04 #@! TF.ProjectId,Cartucho_MSX_Tang_Nano_20k_V9958,43617274-7563-4686-9f5f-4d53585f5461,rev?*
G04 #@! TF.SameCoordinates,Original*
G04 #@! TF.FileFunction,Soldermask,Top*
G04 #@! TF.FilePolarity,Negative*
%FSLAX46Y46*%
G04 Gerber Fmt 4.6, Leading zero omitted, Abs format (unit mm)*
G04 Created by KiCad (PCBNEW (6.0.9)) date 2023-07-19 22:39:00*
%MOMM*%
%LPD*%
G01*
G04 APERTURE LIST*
%ADD10C,4.900000*%
%ADD11R,1.270000X7.620000*%
%ADD12C,1.600000*%
%ADD13R,1.600000X2.400000*%
%ADD14O,1.600000X2.400000*%
%ADD15O,1.600000X1.600000*%
%ADD16R,2.400000X1.600000*%
%ADD17O,2.400000X1.600000*%
G04 APERTURE END LIST*
D10*
X83660000Y-122465000D03*
X139860000Y-127565000D03*
D11*
X142240000Y-139700000D03*
X139700000Y-139700000D03*
X137160000Y-139700000D03*
X134620000Y-139700000D03*
X132080000Y-139700000D03*
X129540000Y-139700000D03*
X127000000Y-139700000D03*
X124460000Y-139700000D03*
X121920000Y-139700000D03*
X119380000Y-139700000D03*
X116840000Y-139700000D03*
X114300000Y-139700000D03*
X111760000Y-139700000D03*
X109220000Y-139700000D03*
X106680000Y-139700000D03*
X104140000Y-139700000D03*
X101600000Y-139700000D03*
X99060000Y-139700000D03*
X96520000Y-139700000D03*
X93980000Y-139700000D03*
X91440000Y-139700000D03*
X88900000Y-138430000D03*
X86360000Y-139700000D03*
X83820000Y-139700000D03*
X81280000Y-139700000D03*
D12*
X114300000Y-102870000D03*
X114300000Y-97870000D03*
X95250000Y-109220000D03*
X100250000Y-109220000D03*
X58420000Y-115570000D03*
X58420000Y-110570000D03*
D13*
X63505000Y-116840000D03*
D14*
X66045000Y-116840000D03*
X68585000Y-116840000D03*
X71125000Y-116840000D03*
X73665000Y-116840000D03*
X76205000Y-116840000D03*
X78745000Y-116840000D03*
X81285000Y-116840000D03*
X83825000Y-116840000D03*
X86365000Y-116840000D03*
X86365000Y-109220000D03*
X83825000Y-109220000D03*
X81285000Y-109220000D03*
X78745000Y-109220000D03*
X76205000Y-109220000D03*
X73665000Y-109220000D03*
X71125000Y-109220000D03*
X68585000Y-109220000D03*
X66045000Y-109220000D03*
X63505000Y-109220000D03*
D13*
X110490000Y-81275000D03*
D14*
X107950000Y-81275000D03*
X105410000Y-81275000D03*
X102870000Y-81275000D03*
X100330000Y-81275000D03*
X97790000Y-81275000D03*
X95250000Y-81275000D03*
X92710000Y-81275000D03*
X90170000Y-81275000D03*
X87630000Y-81275000D03*
X85090000Y-81275000D03*
X82550000Y-81275000D03*
X80010000Y-81275000D03*
X77470000Y-81275000D03*
X74930000Y-81275000D03*
X72390000Y-81275000D03*
X69850000Y-81275000D03*
X67310000Y-81275000D03*
X64770000Y-81275000D03*
X62230000Y-81275000D03*
X62230000Y-101595000D03*
X64770000Y-101595000D03*
X67310000Y-101595000D03*
X69850000Y-101595000D03*
X72390000Y-101595000D03*
X74930000Y-101595000D03*
X77470000Y-101595000D03*
X80010000Y-101595000D03*
X82550000Y-101595000D03*
X85090000Y-101595000D03*
X87630000Y-101595000D03*
X90170000Y-101595000D03*
X92710000Y-101595000D03*
X95250000Y-101595000D03*
X97790000Y-101595000D03*
X100330000Y-101595000D03*
X102870000Y-101595000D03*
X105410000Y-101595000D03*
X107950000Y-101595000D03*
X110490000Y-101595000D03*
D13*
X129540000Y-119380000D03*
D14*
X132080000Y-119380000D03*
X134620000Y-119380000D03*
X137160000Y-119380000D03*
X139700000Y-119380000D03*
X142240000Y-119380000D03*
X144780000Y-119380000D03*
X147320000Y-119380000D03*
X149860000Y-119380000D03*
X152400000Y-119380000D03*
X152400000Y-111760000D03*
X149860000Y-111760000D03*
X147320000Y-111760000D03*
X144780000Y-111760000D03*
X142240000Y-111760000D03*
X139700000Y-111760000D03*
X137160000Y-111760000D03*
X134620000Y-111760000D03*
X132080000Y-111760000D03*
X129540000Y-111760000D03*
D12*
X143510000Y-104140000D03*
X143510000Y-99140000D03*
X92710000Y-113030000D03*
D15*
X92710000Y-120650000D03*
D12*
X128270000Y-107950000D03*
X133270000Y-107950000D03*
D13*
X97790000Y-120650000D03*
D14*
X100330000Y-120650000D03*
X102870000Y-120650000D03*
X105410000Y-120650000D03*
X107950000Y-120650000D03*
X110490000Y-120650000D03*
X113030000Y-120650000D03*
X115570000Y-120650000D03*
X118110000Y-120650000D03*
X120650000Y-120650000D03*
X120650000Y-113030000D03*
X118110000Y-113030000D03*
X115570000Y-113030000D03*
X113030000Y-113030000D03*
X110490000Y-113030000D03*
X107950000Y-113030000D03*
X105410000Y-113030000D03*
X102870000Y-113030000D03*
X100330000Y-113030000D03*
X97790000Y-113030000D03*
D16*
X154940000Y-102870000D03*
D17*
X154940000Y-100330000D03*
X154940000Y-97790000D03*
X154940000Y-95250000D03*
X154940000Y-92710000D03*
X154940000Y-90170000D03*
X154940000Y-87630000D03*
X154940000Y-85090000D03*
X154940000Y-82550000D03*
X154940000Y-80010000D03*
X147320000Y-80010000D03*
X147320000Y-82550000D03*
X147320000Y-85090000D03*
X147320000Y-87630000D03*
X147320000Y-90170000D03*
X147320000Y-92710000D03*
X147320000Y-95250000D03*
X147320000Y-97790000D03*
X147320000Y-100330000D03*
X147320000Y-102870000D03*
M02*
