G04 #@! TF.GenerationSoftware,KiCad,Pcbnew,(6.0.9)*
G04 #@! TF.CreationDate,2023-07-19T22:39:00+02:00*
G04 #@! TF.ProjectId,Cartucho_MSX_Tang_Nano_20k_V9958,43617274-7563-4686-9f5f-4d53585f5461,rev?*
G04 #@! TF.SameCoordinates,Original*
G04 #@! TF.FileFunction,Legend,Top*
G04 #@! TF.FilePolarity,Positive*
%FSLAX46Y46*%
G04 Gerber Fmt 4.6, Leading zero omitted, Abs format (unit mm)*
G04 Created by KiCad (PCBNEW (6.0.9)) date 2023-07-19 22:39:00*
%MOMM*%
%LPD*%
G01*
G04 APERTURE LIST*
%ADD10C,0.150000*%
%ADD11C,0.096520*%
%ADD12C,0.120000*%
%ADD13C,0.100000*%
%ADD14C,4.900000*%
%ADD15R,1.270000X7.620000*%
%ADD16C,1.600000*%
%ADD17R,1.600000X2.400000*%
%ADD18O,1.600000X2.400000*%
%ADD19O,1.600000X1.600000*%
%ADD20R,2.400000X1.600000*%
%ADD21O,2.400000X1.600000*%
G04 APERTURE END LIST*
D10*
X118618095Y-133532619D02*
X118665714Y-133485000D01*
X118760952Y-133437380D01*
X118999047Y-133437380D01*
X119094285Y-133485000D01*
X119141904Y-133532619D01*
X119189523Y-133627857D01*
X119189523Y-133723095D01*
X119141904Y-133865952D01*
X118570476Y-134437380D01*
X119189523Y-134437380D01*
X119808571Y-133437380D02*
X119903809Y-133437380D01*
X119999047Y-133485000D01*
X120046666Y-133532619D01*
X120094285Y-133627857D01*
X120141904Y-133818333D01*
X120141904Y-134056428D01*
X120094285Y-134246904D01*
X120046666Y-134342142D01*
X119999047Y-134389761D01*
X119903809Y-134437380D01*
X119808571Y-134437380D01*
X119713333Y-134389761D01*
X119665714Y-134342142D01*
X119618095Y-134246904D01*
X119570476Y-134056428D01*
X119570476Y-133818333D01*
X119618095Y-133627857D01*
X119665714Y-133532619D01*
X119713333Y-133485000D01*
X119808571Y-133437380D01*
X83891428Y-132379404D02*
X83891428Y-131617500D01*
X84272380Y-131998452D02*
X83510476Y-131998452D01*
X84272380Y-130617500D02*
X84272380Y-131188928D01*
X84272380Y-130903214D02*
X83272380Y-130903214D01*
X83415238Y-130998452D01*
X83510476Y-131093690D01*
X83558095Y-131188928D01*
X83367619Y-130236547D02*
X83320000Y-130188928D01*
X83272380Y-130093690D01*
X83272380Y-129855595D01*
X83320000Y-129760357D01*
X83367619Y-129712738D01*
X83462857Y-129665119D01*
X83558095Y-129665119D01*
X83700952Y-129712738D01*
X84272380Y-130284166D01*
X84272380Y-129665119D01*
X129349523Y-134437380D02*
X128778095Y-134437380D01*
X129063809Y-134437380D02*
X129063809Y-133437380D01*
X128968571Y-133580238D01*
X128873333Y-133675476D01*
X128778095Y-133723095D01*
X129730476Y-133532619D02*
X129778095Y-133485000D01*
X129873333Y-133437380D01*
X130111428Y-133437380D01*
X130206666Y-133485000D01*
X130254285Y-133532619D01*
X130301904Y-133627857D01*
X130301904Y-133723095D01*
X130254285Y-133865952D01*
X129682857Y-134437380D01*
X130301904Y-134437380D01*
X126809523Y-134437380D02*
X126238095Y-134437380D01*
X126523809Y-134437380D02*
X126523809Y-133437380D01*
X126428571Y-133580238D01*
X126333333Y-133675476D01*
X126238095Y-133723095D01*
X127666666Y-133770714D02*
X127666666Y-134437380D01*
X127428571Y-133389761D02*
X127190476Y-134104047D01*
X127809523Y-134104047D01*
X91154285Y-133770714D02*
X91154285Y-134437380D01*
X90916190Y-133389761D02*
X90678095Y-134104047D01*
X91297142Y-134104047D01*
X91630476Y-133532619D02*
X91678095Y-133485000D01*
X91773333Y-133437380D01*
X92011428Y-133437380D01*
X92106666Y-133485000D01*
X92154285Y-133532619D01*
X92201904Y-133627857D01*
X92201904Y-133723095D01*
X92154285Y-133865952D01*
X91582857Y-134437380D01*
X92201904Y-134437380D01*
X86764761Y-132427023D02*
X86812380Y-132284166D01*
X86812380Y-132046071D01*
X86764761Y-131950833D01*
X86717142Y-131903214D01*
X86621904Y-131855595D01*
X86526666Y-131855595D01*
X86431428Y-131903214D01*
X86383809Y-131950833D01*
X86336190Y-132046071D01*
X86288571Y-132236547D01*
X86240952Y-132331785D01*
X86193333Y-132379404D01*
X86098095Y-132427023D01*
X86002857Y-132427023D01*
X85907619Y-132379404D01*
X85860000Y-132331785D01*
X85812380Y-132236547D01*
X85812380Y-131998452D01*
X85860000Y-131855595D01*
X85812380Y-131522261D02*
X86812380Y-131284166D01*
X86098095Y-131093690D01*
X86812380Y-130903214D01*
X85812380Y-130665119D01*
X116078095Y-133532619D02*
X116125714Y-133485000D01*
X116220952Y-133437380D01*
X116459047Y-133437380D01*
X116554285Y-133485000D01*
X116601904Y-133532619D01*
X116649523Y-133627857D01*
X116649523Y-133723095D01*
X116601904Y-133865952D01*
X116030476Y-134437380D01*
X116649523Y-134437380D01*
X117030476Y-133532619D02*
X117078095Y-133485000D01*
X117173333Y-133437380D01*
X117411428Y-133437380D01*
X117506666Y-133485000D01*
X117554285Y-133532619D01*
X117601904Y-133627857D01*
X117601904Y-133723095D01*
X117554285Y-133865952D01*
X116982857Y-134437380D01*
X117601904Y-134437380D01*
X114466666Y-132427023D02*
X114466666Y-131950833D01*
X114752380Y-132522261D02*
X113752380Y-132188928D01*
X114752380Y-131855595D01*
X114180952Y-131379404D02*
X114133333Y-131474642D01*
X114085714Y-131522261D01*
X113990476Y-131569880D01*
X113942857Y-131569880D01*
X113847619Y-131522261D01*
X113800000Y-131474642D01*
X113752380Y-131379404D01*
X113752380Y-131188928D01*
X113800000Y-131093690D01*
X113847619Y-131046071D01*
X113942857Y-130998452D01*
X113990476Y-130998452D01*
X114085714Y-131046071D01*
X114133333Y-131093690D01*
X114180952Y-131188928D01*
X114180952Y-131379404D01*
X114228571Y-131474642D01*
X114276190Y-131522261D01*
X114371428Y-131569880D01*
X114561904Y-131569880D01*
X114657142Y-131522261D01*
X114704761Y-131474642D01*
X114752380Y-131379404D01*
X114752380Y-131188928D01*
X114704761Y-131093690D01*
X114657142Y-131046071D01*
X114561904Y-130998452D01*
X114371428Y-130998452D01*
X114276190Y-131046071D01*
X114228571Y-131093690D01*
X114180952Y-131188928D01*
X122086666Y-132427023D02*
X122086666Y-131950833D01*
X122372380Y-132522261D02*
X121372380Y-132188928D01*
X122372380Y-131855595D01*
X122372380Y-130998452D02*
X122372380Y-131569880D01*
X122372380Y-131284166D02*
X121372380Y-131284166D01*
X121515238Y-131379404D01*
X121610476Y-131474642D01*
X121658095Y-131569880D01*
X121372380Y-130093690D02*
X121372380Y-130569880D01*
X121848571Y-130617500D01*
X121800952Y-130569880D01*
X121753333Y-130474642D01*
X121753333Y-130236547D01*
X121800952Y-130141309D01*
X121848571Y-130093690D01*
X121943809Y-130046071D01*
X122181904Y-130046071D01*
X122277142Y-130093690D01*
X122324761Y-130141309D01*
X122372380Y-130236547D01*
X122372380Y-130474642D01*
X122324761Y-130569880D01*
X122277142Y-130617500D01*
X81351428Y-132379404D02*
X81351428Y-131617500D01*
X81732380Y-130617500D02*
X81732380Y-131188928D01*
X81732380Y-130903214D02*
X80732380Y-130903214D01*
X80875238Y-130998452D01*
X80970476Y-131093690D01*
X81018095Y-131188928D01*
X80827619Y-130236547D02*
X80780000Y-130188928D01*
X80732380Y-130093690D01*
X80732380Y-129855595D01*
X80780000Y-129760357D01*
X80827619Y-129712738D01*
X80922857Y-129665119D01*
X81018095Y-129665119D01*
X81160952Y-129712738D01*
X81732380Y-130284166D01*
X81732380Y-129665119D01*
X95710476Y-133437380D02*
X96329523Y-133437380D01*
X95996190Y-133818333D01*
X96139047Y-133818333D01*
X96234285Y-133865952D01*
X96281904Y-133913571D01*
X96329523Y-134008809D01*
X96329523Y-134246904D01*
X96281904Y-134342142D01*
X96234285Y-134389761D01*
X96139047Y-134437380D01*
X95853333Y-134437380D01*
X95758095Y-134389761D01*
X95710476Y-134342142D01*
X96900952Y-133865952D02*
X96805714Y-133818333D01*
X96758095Y-133770714D01*
X96710476Y-133675476D01*
X96710476Y-133627857D01*
X96758095Y-133532619D01*
X96805714Y-133485000D01*
X96900952Y-133437380D01*
X97091428Y-133437380D01*
X97186666Y-133485000D01*
X97234285Y-133532619D01*
X97281904Y-133627857D01*
X97281904Y-133675476D01*
X97234285Y-133770714D01*
X97186666Y-133818333D01*
X97091428Y-133865952D01*
X96900952Y-133865952D01*
X96805714Y-133913571D01*
X96758095Y-133961190D01*
X96710476Y-134056428D01*
X96710476Y-134246904D01*
X96758095Y-134342142D01*
X96805714Y-134389761D01*
X96900952Y-134437380D01*
X97091428Y-134437380D01*
X97186666Y-134389761D01*
X97234285Y-134342142D01*
X97281904Y-134246904D01*
X97281904Y-134056428D01*
X97234285Y-133961190D01*
X97186666Y-133913571D01*
X97091428Y-133865952D01*
X142597142Y-131807976D02*
X142644761Y-131855595D01*
X142692380Y-131998452D01*
X142692380Y-132093690D01*
X142644761Y-132236547D01*
X142549523Y-132331785D01*
X142454285Y-132379404D01*
X142263809Y-132427023D01*
X142120952Y-132427023D01*
X141930476Y-132379404D01*
X141835238Y-132331785D01*
X141740000Y-132236547D01*
X141692380Y-132093690D01*
X141692380Y-131998452D01*
X141740000Y-131855595D01*
X141787619Y-131807976D01*
X142644761Y-131427023D02*
X142692380Y-131284166D01*
X142692380Y-131046071D01*
X142644761Y-130950833D01*
X142597142Y-130903214D01*
X142501904Y-130855595D01*
X142406666Y-130855595D01*
X142311428Y-130903214D01*
X142263809Y-130950833D01*
X142216190Y-131046071D01*
X142168571Y-131236547D01*
X142120952Y-131331785D01*
X142073333Y-131379404D01*
X141978095Y-131427023D01*
X141882857Y-131427023D01*
X141787619Y-131379404D01*
X141740000Y-131331785D01*
X141692380Y-131236547D01*
X141692380Y-130998452D01*
X141740000Y-130855595D01*
X141787619Y-130474642D02*
X141740000Y-130427023D01*
X141692380Y-130331785D01*
X141692380Y-130093690D01*
X141740000Y-129998452D01*
X141787619Y-129950833D01*
X141882857Y-129903214D01*
X141978095Y-129903214D01*
X142120952Y-129950833D01*
X142692380Y-130522261D01*
X142692380Y-129903214D01*
X105870476Y-133437380D02*
X106489523Y-133437380D01*
X106156190Y-133818333D01*
X106299047Y-133818333D01*
X106394285Y-133865952D01*
X106441904Y-133913571D01*
X106489523Y-134008809D01*
X106489523Y-134246904D01*
X106441904Y-134342142D01*
X106394285Y-134389761D01*
X106299047Y-134437380D01*
X106013333Y-134437380D01*
X105918095Y-134389761D01*
X105870476Y-134342142D01*
X107108571Y-133437380D02*
X107203809Y-133437380D01*
X107299047Y-133485000D01*
X107346666Y-133532619D01*
X107394285Y-133627857D01*
X107441904Y-133818333D01*
X107441904Y-134056428D01*
X107394285Y-134246904D01*
X107346666Y-134342142D01*
X107299047Y-134389761D01*
X107203809Y-134437380D01*
X107108571Y-134437380D01*
X107013333Y-134389761D01*
X106965714Y-134342142D01*
X106918095Y-134246904D01*
X106870476Y-134056428D01*
X106870476Y-133818333D01*
X106918095Y-133627857D01*
X106965714Y-133532619D01*
X107013333Y-133485000D01*
X107108571Y-133437380D01*
X96972380Y-132379404D02*
X95972380Y-132379404D01*
X95972380Y-132141309D01*
X96020000Y-131998452D01*
X96115238Y-131903214D01*
X96210476Y-131855595D01*
X96400952Y-131807976D01*
X96543809Y-131807976D01*
X96734285Y-131855595D01*
X96829523Y-131903214D01*
X96924761Y-131998452D01*
X96972380Y-132141309D01*
X96972380Y-132379404D01*
X96305714Y-130950833D02*
X96972380Y-130950833D01*
X95924761Y-131188928D02*
X96639047Y-131427023D01*
X96639047Y-130807976D01*
X91797142Y-131807976D02*
X91844761Y-131855595D01*
X91892380Y-131998452D01*
X91892380Y-132093690D01*
X91844761Y-132236547D01*
X91749523Y-132331785D01*
X91654285Y-132379404D01*
X91463809Y-132427023D01*
X91320952Y-132427023D01*
X91130476Y-132379404D01*
X91035238Y-132331785D01*
X90940000Y-132236547D01*
X90892380Y-132093690D01*
X90892380Y-131998452D01*
X90940000Y-131855595D01*
X90987619Y-131807976D01*
X91892380Y-130903214D02*
X91892380Y-131379404D01*
X90892380Y-131379404D01*
X91892380Y-130569880D02*
X90892380Y-130569880D01*
X91892380Y-129998452D02*
X91320952Y-130427023D01*
X90892380Y-129998452D02*
X91463809Y-130569880D01*
X119546666Y-132427023D02*
X119546666Y-131950833D01*
X119832380Y-132522261D02*
X118832380Y-132188928D01*
X119832380Y-131855595D01*
X119832380Y-130998452D02*
X119832380Y-131569880D01*
X119832380Y-131284166D02*
X118832380Y-131284166D01*
X118975238Y-131379404D01*
X119070476Y-131474642D01*
X119118095Y-131569880D01*
X118832380Y-130379404D02*
X118832380Y-130284166D01*
X118880000Y-130188928D01*
X118927619Y-130141309D01*
X119022857Y-130093690D01*
X119213333Y-130046071D01*
X119451428Y-130046071D01*
X119641904Y-130093690D01*
X119737142Y-130141309D01*
X119784761Y-130188928D01*
X119832380Y-130284166D01*
X119832380Y-130379404D01*
X119784761Y-130474642D01*
X119737142Y-130522261D01*
X119641904Y-130569880D01*
X119451428Y-130617500D01*
X119213333Y-130617500D01*
X119022857Y-130569880D01*
X118927619Y-130522261D01*
X118880000Y-130474642D01*
X118832380Y-130379404D01*
X113538095Y-133532619D02*
X113585714Y-133485000D01*
X113680952Y-133437380D01*
X113919047Y-133437380D01*
X114014285Y-133485000D01*
X114061904Y-133532619D01*
X114109523Y-133627857D01*
X114109523Y-133723095D01*
X114061904Y-133865952D01*
X113490476Y-134437380D01*
X114109523Y-134437380D01*
X114966666Y-133770714D02*
X114966666Y-134437380D01*
X114728571Y-133389761D02*
X114490476Y-134104047D01*
X115109523Y-134104047D01*
X83534285Y-133770714D02*
X83534285Y-134437380D01*
X83296190Y-133389761D02*
X83058095Y-134104047D01*
X83677142Y-134104047D01*
X84200952Y-133865952D02*
X84105714Y-133818333D01*
X84058095Y-133770714D01*
X84010476Y-133675476D01*
X84010476Y-133627857D01*
X84058095Y-133532619D01*
X84105714Y-133485000D01*
X84200952Y-133437380D01*
X84391428Y-133437380D01*
X84486666Y-133485000D01*
X84534285Y-133532619D01*
X84581904Y-133627857D01*
X84581904Y-133675476D01*
X84534285Y-133770714D01*
X84486666Y-133818333D01*
X84391428Y-133865952D01*
X84200952Y-133865952D01*
X84105714Y-133913571D01*
X84058095Y-133961190D01*
X84010476Y-134056428D01*
X84010476Y-134246904D01*
X84058095Y-134342142D01*
X84105714Y-134389761D01*
X84200952Y-134437380D01*
X84391428Y-134437380D01*
X84486666Y-134389761D01*
X84534285Y-134342142D01*
X84581904Y-134246904D01*
X84581904Y-134056428D01*
X84534285Y-133961190D01*
X84486666Y-133913571D01*
X84391428Y-133865952D01*
X86074285Y-133770714D02*
X86074285Y-134437380D01*
X85836190Y-133389761D02*
X85598095Y-134104047D01*
X86217142Y-134104047D01*
X87026666Y-133437380D02*
X86836190Y-133437380D01*
X86740952Y-133485000D01*
X86693333Y-133532619D01*
X86598095Y-133675476D01*
X86550476Y-133865952D01*
X86550476Y-134246904D01*
X86598095Y-134342142D01*
X86645714Y-134389761D01*
X86740952Y-134437380D01*
X86931428Y-134437380D01*
X87026666Y-134389761D01*
X87074285Y-134342142D01*
X87121904Y-134246904D01*
X87121904Y-134008809D01*
X87074285Y-133913571D01*
X87026666Y-133865952D01*
X86931428Y-133818333D01*
X86740952Y-133818333D01*
X86645714Y-133865952D01*
X86598095Y-133913571D01*
X86550476Y-134008809D01*
X134524761Y-133865952D02*
X134429523Y-133818333D01*
X134381904Y-133770714D01*
X134334285Y-133675476D01*
X134334285Y-133627857D01*
X134381904Y-133532619D01*
X134429523Y-133485000D01*
X134524761Y-133437380D01*
X134715238Y-133437380D01*
X134810476Y-133485000D01*
X134858095Y-133532619D01*
X134905714Y-133627857D01*
X134905714Y-133675476D01*
X134858095Y-133770714D01*
X134810476Y-133818333D01*
X134715238Y-133865952D01*
X134524761Y-133865952D01*
X134429523Y-133913571D01*
X134381904Y-133961190D01*
X134334285Y-134056428D01*
X134334285Y-134246904D01*
X134381904Y-134342142D01*
X134429523Y-134389761D01*
X134524761Y-134437380D01*
X134715238Y-134437380D01*
X134810476Y-134389761D01*
X134858095Y-134342142D01*
X134905714Y-134246904D01*
X134905714Y-134056428D01*
X134858095Y-133961190D01*
X134810476Y-133913571D01*
X134715238Y-133865952D01*
X100790476Y-133437380D02*
X101409523Y-133437380D01*
X101076190Y-133818333D01*
X101219047Y-133818333D01*
X101314285Y-133865952D01*
X101361904Y-133913571D01*
X101409523Y-134008809D01*
X101409523Y-134246904D01*
X101361904Y-134342142D01*
X101314285Y-134389761D01*
X101219047Y-134437380D01*
X100933333Y-134437380D01*
X100838095Y-134389761D01*
X100790476Y-134342142D01*
X102266666Y-133770714D02*
X102266666Y-134437380D01*
X102028571Y-133389761D02*
X101790476Y-134104047D01*
X102409523Y-134104047D01*
X132008571Y-132046071D02*
X132056190Y-131903214D01*
X132103809Y-131855595D01*
X132199047Y-131807976D01*
X132341904Y-131807976D01*
X132437142Y-131855595D01*
X132484761Y-131903214D01*
X132532380Y-131998452D01*
X132532380Y-132379404D01*
X131532380Y-132379404D01*
X131532380Y-132046071D01*
X131580000Y-131950833D01*
X131627619Y-131903214D01*
X131722857Y-131855595D01*
X131818095Y-131855595D01*
X131913333Y-131903214D01*
X131960952Y-131950833D01*
X132008571Y-132046071D01*
X132008571Y-132379404D01*
X132532380Y-131379404D02*
X131532380Y-131379404D01*
X131532380Y-131141309D01*
X131580000Y-130998452D01*
X131675238Y-130903214D01*
X131770476Y-130855595D01*
X131960952Y-130807976D01*
X132103809Y-130807976D01*
X132294285Y-130855595D01*
X132389523Y-130903214D01*
X132484761Y-130998452D01*
X132532380Y-131141309D01*
X132532380Y-131379404D01*
X132532380Y-130379404D02*
X131532380Y-130379404D01*
X132532380Y-129331785D02*
X132056190Y-129665119D01*
X132532380Y-129903214D02*
X131532380Y-129903214D01*
X131532380Y-129522261D01*
X131580000Y-129427023D01*
X131627619Y-129379404D01*
X131722857Y-129331785D01*
X131865714Y-129331785D01*
X131960952Y-129379404D01*
X132008571Y-129427023D01*
X132056190Y-129522261D01*
X132056190Y-129903214D01*
X108458095Y-133532619D02*
X108505714Y-133485000D01*
X108600952Y-133437380D01*
X108839047Y-133437380D01*
X108934285Y-133485000D01*
X108981904Y-133532619D01*
X109029523Y-133627857D01*
X109029523Y-133723095D01*
X108981904Y-133865952D01*
X108410476Y-134437380D01*
X109029523Y-134437380D01*
X109600952Y-133865952D02*
X109505714Y-133818333D01*
X109458095Y-133770714D01*
X109410476Y-133675476D01*
X109410476Y-133627857D01*
X109458095Y-133532619D01*
X109505714Y-133485000D01*
X109600952Y-133437380D01*
X109791428Y-133437380D01*
X109886666Y-133485000D01*
X109934285Y-133532619D01*
X109981904Y-133627857D01*
X109981904Y-133675476D01*
X109934285Y-133770714D01*
X109886666Y-133818333D01*
X109791428Y-133865952D01*
X109600952Y-133865952D01*
X109505714Y-133913571D01*
X109458095Y-133961190D01*
X109410476Y-134056428D01*
X109410476Y-134246904D01*
X109458095Y-134342142D01*
X109505714Y-134389761D01*
X109600952Y-134437380D01*
X109791428Y-134437380D01*
X109886666Y-134389761D01*
X109934285Y-134342142D01*
X109981904Y-134246904D01*
X109981904Y-134056428D01*
X109934285Y-133961190D01*
X109886666Y-133913571D01*
X109791428Y-133865952D01*
X81041904Y-133437380D02*
X80565714Y-133437380D01*
X80518095Y-133913571D01*
X80565714Y-133865952D01*
X80660952Y-133818333D01*
X80899047Y-133818333D01*
X80994285Y-133865952D01*
X81041904Y-133913571D01*
X81089523Y-134008809D01*
X81089523Y-134246904D01*
X81041904Y-134342142D01*
X80994285Y-134389761D01*
X80899047Y-134437380D01*
X80660952Y-134437380D01*
X80565714Y-134389761D01*
X80518095Y-134342142D01*
X81708571Y-133437380D02*
X81803809Y-133437380D01*
X81899047Y-133485000D01*
X81946666Y-133532619D01*
X81994285Y-133627857D01*
X82041904Y-133818333D01*
X82041904Y-134056428D01*
X81994285Y-134246904D01*
X81946666Y-134342142D01*
X81899047Y-134389761D01*
X81803809Y-134437380D01*
X81708571Y-134437380D01*
X81613333Y-134389761D01*
X81565714Y-134342142D01*
X81518095Y-134246904D01*
X81470476Y-134056428D01*
X81470476Y-133818333D01*
X81518095Y-133627857D01*
X81565714Y-133532619D01*
X81613333Y-133485000D01*
X81708571Y-133437380D01*
X98250476Y-133437380D02*
X98869523Y-133437380D01*
X98536190Y-133818333D01*
X98679047Y-133818333D01*
X98774285Y-133865952D01*
X98821904Y-133913571D01*
X98869523Y-134008809D01*
X98869523Y-134246904D01*
X98821904Y-134342142D01*
X98774285Y-134389761D01*
X98679047Y-134437380D01*
X98393333Y-134437380D01*
X98298095Y-134389761D01*
X98250476Y-134342142D01*
X99726666Y-133437380D02*
X99536190Y-133437380D01*
X99440952Y-133485000D01*
X99393333Y-133532619D01*
X99298095Y-133675476D01*
X99250476Y-133865952D01*
X99250476Y-134246904D01*
X99298095Y-134342142D01*
X99345714Y-134389761D01*
X99440952Y-134437380D01*
X99631428Y-134437380D01*
X99726666Y-134389761D01*
X99774285Y-134342142D01*
X99821904Y-134246904D01*
X99821904Y-134008809D01*
X99774285Y-133913571D01*
X99726666Y-133865952D01*
X99631428Y-133818333D01*
X99440952Y-133818333D01*
X99345714Y-133865952D01*
X99298095Y-133913571D01*
X99250476Y-134008809D01*
X99512380Y-132379404D02*
X98512380Y-132379404D01*
X98512380Y-132141309D01*
X98560000Y-131998452D01*
X98655238Y-131903214D01*
X98750476Y-131855595D01*
X98940952Y-131807976D01*
X99083809Y-131807976D01*
X99274285Y-131855595D01*
X99369523Y-131903214D01*
X99464761Y-131998452D01*
X99512380Y-132141309D01*
X99512380Y-132379404D01*
X98607619Y-131427023D02*
X98560000Y-131379404D01*
X98512380Y-131284166D01*
X98512380Y-131046071D01*
X98560000Y-130950833D01*
X98607619Y-130903214D01*
X98702857Y-130855595D01*
X98798095Y-130855595D01*
X98940952Y-130903214D01*
X99512380Y-131474642D01*
X99512380Y-130855595D01*
X111926666Y-132427023D02*
X111926666Y-131950833D01*
X112212380Y-132522261D02*
X111212380Y-132188928D01*
X112212380Y-131855595D01*
X112212380Y-130998452D02*
X112212380Y-131569880D01*
X112212380Y-131284166D02*
X111212380Y-131284166D01*
X111355238Y-131379404D01*
X111450476Y-131474642D01*
X111498095Y-131569880D01*
X111212380Y-130665119D02*
X111212380Y-130046071D01*
X111593333Y-130379404D01*
X111593333Y-130236547D01*
X111640952Y-130141309D01*
X111688571Y-130093690D01*
X111783809Y-130046071D01*
X112021904Y-130046071D01*
X112117142Y-130093690D01*
X112164761Y-130141309D01*
X112212380Y-130236547D01*
X112212380Y-130522261D01*
X112164761Y-130617500D01*
X112117142Y-130665119D01*
X109386666Y-132427023D02*
X109386666Y-131950833D01*
X109672380Y-132522261D02*
X108672380Y-132188928D01*
X109672380Y-131855595D01*
X108672380Y-131331785D02*
X108672380Y-131236547D01*
X108720000Y-131141309D01*
X108767619Y-131093690D01*
X108862857Y-131046071D01*
X109053333Y-130998452D01*
X109291428Y-130998452D01*
X109481904Y-131046071D01*
X109577142Y-131093690D01*
X109624761Y-131141309D01*
X109672380Y-131236547D01*
X109672380Y-131331785D01*
X109624761Y-131427023D01*
X109577142Y-131474642D01*
X109481904Y-131522261D01*
X109291428Y-131569880D01*
X109053333Y-131569880D01*
X108862857Y-131522261D01*
X108767619Y-131474642D01*
X108720000Y-131427023D01*
X108672380Y-131331785D01*
X117006666Y-132427023D02*
X117006666Y-131950833D01*
X117292380Y-132522261D02*
X116292380Y-132188928D01*
X117292380Y-131855595D01*
X116292380Y-131093690D02*
X116292380Y-131284166D01*
X116340000Y-131379404D01*
X116387619Y-131427023D01*
X116530476Y-131522261D01*
X116720952Y-131569880D01*
X117101904Y-131569880D01*
X117197142Y-131522261D01*
X117244761Y-131474642D01*
X117292380Y-131379404D01*
X117292380Y-131188928D01*
X117244761Y-131093690D01*
X117197142Y-131046071D01*
X117101904Y-130998452D01*
X116863809Y-130998452D01*
X116768571Y-131046071D01*
X116720952Y-131093690D01*
X116673333Y-131188928D01*
X116673333Y-131379404D01*
X116720952Y-131474642D01*
X116768571Y-131522261D01*
X116863809Y-131569880D01*
X121729523Y-134437380D02*
X121158095Y-134437380D01*
X121443809Y-134437380D02*
X121443809Y-133437380D01*
X121348571Y-133580238D01*
X121253333Y-133675476D01*
X121158095Y-133723095D01*
X122300952Y-133865952D02*
X122205714Y-133818333D01*
X122158095Y-133770714D01*
X122110476Y-133675476D01*
X122110476Y-133627857D01*
X122158095Y-133532619D01*
X122205714Y-133485000D01*
X122300952Y-133437380D01*
X122491428Y-133437380D01*
X122586666Y-133485000D01*
X122634285Y-133532619D01*
X122681904Y-133627857D01*
X122681904Y-133675476D01*
X122634285Y-133770714D01*
X122586666Y-133818333D01*
X122491428Y-133865952D01*
X122300952Y-133865952D01*
X122205714Y-133913571D01*
X122158095Y-133961190D01*
X122110476Y-134056428D01*
X122110476Y-134246904D01*
X122158095Y-134342142D01*
X122205714Y-134389761D01*
X122300952Y-134437380D01*
X122491428Y-134437380D01*
X122586666Y-134389761D01*
X122634285Y-134342142D01*
X122681904Y-134246904D01*
X122681904Y-134056428D01*
X122634285Y-133961190D01*
X122586666Y-133913571D01*
X122491428Y-133865952D01*
X141954285Y-133532619D02*
X142001904Y-133485000D01*
X142097142Y-133437380D01*
X142335238Y-133437380D01*
X142430476Y-133485000D01*
X142478095Y-133532619D01*
X142525714Y-133627857D01*
X142525714Y-133723095D01*
X142478095Y-133865952D01*
X141906666Y-134437380D01*
X142525714Y-134437380D01*
X127452380Y-131807976D02*
X126976190Y-132141309D01*
X127452380Y-132379404D02*
X126452380Y-132379404D01*
X126452380Y-131998452D01*
X126500000Y-131903214D01*
X126547619Y-131855595D01*
X126642857Y-131807976D01*
X126785714Y-131807976D01*
X126880952Y-131855595D01*
X126928571Y-131903214D01*
X126976190Y-131998452D01*
X126976190Y-132379404D01*
X127452380Y-131379404D02*
X126452380Y-131379404D01*
X126452380Y-131141309D01*
X126500000Y-130998452D01*
X126595238Y-130903214D01*
X126690476Y-130855595D01*
X126880952Y-130807976D01*
X127023809Y-130807976D01*
X127214285Y-130855595D01*
X127309523Y-130903214D01*
X127404761Y-130998452D01*
X127452380Y-131141309D01*
X127452380Y-131379404D01*
X110998095Y-133532619D02*
X111045714Y-133485000D01*
X111140952Y-133437380D01*
X111379047Y-133437380D01*
X111474285Y-133485000D01*
X111521904Y-133532619D01*
X111569523Y-133627857D01*
X111569523Y-133723095D01*
X111521904Y-133865952D01*
X110950476Y-134437380D01*
X111569523Y-134437380D01*
X112426666Y-133437380D02*
X112236190Y-133437380D01*
X112140952Y-133485000D01*
X112093333Y-133532619D01*
X111998095Y-133675476D01*
X111950476Y-133865952D01*
X111950476Y-134246904D01*
X111998095Y-134342142D01*
X112045714Y-134389761D01*
X112140952Y-134437380D01*
X112331428Y-134437380D01*
X112426666Y-134389761D01*
X112474285Y-134342142D01*
X112521904Y-134246904D01*
X112521904Y-134008809D01*
X112474285Y-133913571D01*
X112426666Y-133865952D01*
X112331428Y-133818333D01*
X112140952Y-133818333D01*
X112045714Y-133865952D01*
X111998095Y-133913571D01*
X111950476Y-134008809D01*
X139890476Y-133770714D02*
X139890476Y-134437380D01*
X139652380Y-133389761D02*
X139414285Y-134104047D01*
X140033333Y-134104047D01*
X93694285Y-133770714D02*
X93694285Y-134437380D01*
X93456190Y-133389761D02*
X93218095Y-134104047D01*
X93837142Y-134104047D01*
X94408571Y-133437380D02*
X94503809Y-133437380D01*
X94599047Y-133485000D01*
X94646666Y-133532619D01*
X94694285Y-133627857D01*
X94741904Y-133818333D01*
X94741904Y-134056428D01*
X94694285Y-134246904D01*
X94646666Y-134342142D01*
X94599047Y-134389761D01*
X94503809Y-134437380D01*
X94408571Y-134437380D01*
X94313333Y-134389761D01*
X94265714Y-134342142D01*
X94218095Y-134246904D01*
X94170476Y-134056428D01*
X94170476Y-133818333D01*
X94218095Y-133627857D01*
X94265714Y-133532619D01*
X94313333Y-133485000D01*
X94408571Y-133437380D01*
X135072380Y-132379404D02*
X134072380Y-132379404D01*
X135072380Y-131903214D02*
X134072380Y-131903214D01*
X135072380Y-131331785D01*
X134072380Y-131331785D01*
X134072380Y-130998452D02*
X134072380Y-130427023D01*
X135072380Y-130712738D02*
X134072380Y-130712738D01*
X103330476Y-133437380D02*
X103949523Y-133437380D01*
X103616190Y-133818333D01*
X103759047Y-133818333D01*
X103854285Y-133865952D01*
X103901904Y-133913571D01*
X103949523Y-134008809D01*
X103949523Y-134246904D01*
X103901904Y-134342142D01*
X103854285Y-134389761D01*
X103759047Y-134437380D01*
X103473333Y-134437380D01*
X103378095Y-134389761D01*
X103330476Y-134342142D01*
X104330476Y-133532619D02*
X104378095Y-133485000D01*
X104473333Y-133437380D01*
X104711428Y-133437380D01*
X104806666Y-133485000D01*
X104854285Y-133532619D01*
X104901904Y-133627857D01*
X104901904Y-133723095D01*
X104854285Y-133865952D01*
X104282857Y-134437380D01*
X104901904Y-134437380D01*
X89304761Y-132427023D02*
X89352380Y-132284166D01*
X89352380Y-132046071D01*
X89304761Y-131950833D01*
X89257142Y-131903214D01*
X89161904Y-131855595D01*
X89066666Y-131855595D01*
X88971428Y-131903214D01*
X88923809Y-131950833D01*
X88876190Y-132046071D01*
X88828571Y-132236547D01*
X88780952Y-132331785D01*
X88733333Y-132379404D01*
X88638095Y-132427023D01*
X88542857Y-132427023D01*
X88447619Y-132379404D01*
X88400000Y-132331785D01*
X88352380Y-132236547D01*
X88352380Y-131998452D01*
X88400000Y-131855595D01*
X88352380Y-131522261D02*
X89352380Y-131284166D01*
X88638095Y-131093690D01*
X89352380Y-130903214D01*
X88352380Y-130665119D01*
X94432380Y-132379404D02*
X93432380Y-132379404D01*
X93432380Y-132141309D01*
X93480000Y-131998452D01*
X93575238Y-131903214D01*
X93670476Y-131855595D01*
X93860952Y-131807976D01*
X94003809Y-131807976D01*
X94194285Y-131855595D01*
X94289523Y-131903214D01*
X94384761Y-131998452D01*
X94432380Y-132141309D01*
X94432380Y-132379404D01*
X93432380Y-130950833D02*
X93432380Y-131141309D01*
X93480000Y-131236547D01*
X93527619Y-131284166D01*
X93670476Y-131379404D01*
X93860952Y-131427023D01*
X94241904Y-131427023D01*
X94337142Y-131379404D01*
X94384761Y-131331785D01*
X94432380Y-131236547D01*
X94432380Y-131046071D01*
X94384761Y-130950833D01*
X94337142Y-130903214D01*
X94241904Y-130855595D01*
X94003809Y-130855595D01*
X93908571Y-130903214D01*
X93860952Y-130950833D01*
X93813333Y-131046071D01*
X93813333Y-131236547D01*
X93860952Y-131331785D01*
X93908571Y-131379404D01*
X94003809Y-131427023D01*
X137612380Y-131807976D02*
X137136190Y-132141309D01*
X137612380Y-132379404D02*
X136612380Y-132379404D01*
X136612380Y-131998452D01*
X136660000Y-131903214D01*
X136707619Y-131855595D01*
X136802857Y-131807976D01*
X136945714Y-131807976D01*
X137040952Y-131855595D01*
X137088571Y-131903214D01*
X137136190Y-131998452D01*
X137136190Y-132379404D01*
X137088571Y-131046071D02*
X137088571Y-131379404D01*
X137612380Y-131379404D02*
X136612380Y-131379404D01*
X136612380Y-130903214D01*
X137564761Y-130569880D02*
X137612380Y-130427023D01*
X137612380Y-130188928D01*
X137564761Y-130093690D01*
X137517142Y-130046071D01*
X137421904Y-129998452D01*
X137326666Y-129998452D01*
X137231428Y-130046071D01*
X137183809Y-130093690D01*
X137136190Y-130188928D01*
X137088571Y-130379404D01*
X137040952Y-130474642D01*
X136993333Y-130522261D01*
X136898095Y-130569880D01*
X136802857Y-130569880D01*
X136707619Y-130522261D01*
X136660000Y-130474642D01*
X136612380Y-130379404D01*
X136612380Y-130141309D01*
X136660000Y-129998452D01*
X137612380Y-129569880D02*
X136612380Y-129569880D01*
X137088571Y-129569880D02*
X137088571Y-128998452D01*
X137612380Y-128998452D02*
X136612380Y-128998452D01*
X137350476Y-133437380D02*
X137160000Y-133437380D01*
X137064761Y-133485000D01*
X137017142Y-133532619D01*
X136921904Y-133675476D01*
X136874285Y-133865952D01*
X136874285Y-134246904D01*
X136921904Y-134342142D01*
X136969523Y-134389761D01*
X137064761Y-134437380D01*
X137255238Y-134437380D01*
X137350476Y-134389761D01*
X137398095Y-134342142D01*
X137445714Y-134246904D01*
X137445714Y-134008809D01*
X137398095Y-133913571D01*
X137350476Y-133865952D01*
X137255238Y-133818333D01*
X137064761Y-133818333D01*
X136969523Y-133865952D01*
X136921904Y-133913571D01*
X136874285Y-134008809D01*
X104306666Y-132427023D02*
X104306666Y-131950833D01*
X104592380Y-132522261D02*
X103592380Y-132188928D01*
X104592380Y-131855595D01*
X103925714Y-131093690D02*
X104592380Y-131093690D01*
X103544761Y-131331785D02*
X104259047Y-131569880D01*
X104259047Y-130950833D01*
X106846666Y-132427023D02*
X106846666Y-131950833D01*
X107132380Y-132522261D02*
X106132380Y-132188928D01*
X107132380Y-131855595D01*
X106227619Y-131569880D02*
X106180000Y-131522261D01*
X106132380Y-131427023D01*
X106132380Y-131188928D01*
X106180000Y-131093690D01*
X106227619Y-131046071D01*
X106322857Y-130998452D01*
X106418095Y-130998452D01*
X106560952Y-131046071D01*
X107132380Y-131617500D01*
X107132380Y-130998452D01*
X124269523Y-134437380D02*
X123698095Y-134437380D01*
X123983809Y-134437380D02*
X123983809Y-133437380D01*
X123888571Y-133580238D01*
X123793333Y-133675476D01*
X123698095Y-133723095D01*
X125126666Y-133437380D02*
X124936190Y-133437380D01*
X124840952Y-133485000D01*
X124793333Y-133532619D01*
X124698095Y-133675476D01*
X124650476Y-133865952D01*
X124650476Y-134246904D01*
X124698095Y-134342142D01*
X124745714Y-134389761D01*
X124840952Y-134437380D01*
X125031428Y-134437380D01*
X125126666Y-134389761D01*
X125174285Y-134342142D01*
X125221904Y-134246904D01*
X125221904Y-134008809D01*
X125174285Y-133913571D01*
X125126666Y-133865952D01*
X125031428Y-133818333D01*
X124840952Y-133818333D01*
X124745714Y-133865952D01*
X124698095Y-133913571D01*
X124650476Y-134008809D01*
X140104761Y-132427023D02*
X140152380Y-132284166D01*
X140152380Y-132046071D01*
X140104761Y-131950833D01*
X140057142Y-131903214D01*
X139961904Y-131855595D01*
X139866666Y-131855595D01*
X139771428Y-131903214D01*
X139723809Y-131950833D01*
X139676190Y-132046071D01*
X139628571Y-132236547D01*
X139580952Y-132331785D01*
X139533333Y-132379404D01*
X139438095Y-132427023D01*
X139342857Y-132427023D01*
X139247619Y-132379404D01*
X139200000Y-132331785D01*
X139152380Y-132236547D01*
X139152380Y-131998452D01*
X139200000Y-131855595D01*
X140152380Y-130950833D02*
X140152380Y-131427023D01*
X139152380Y-131427023D01*
X139152380Y-130760357D02*
X139152380Y-130188928D01*
X140152380Y-130474642D02*
X139152380Y-130474642D01*
X140104761Y-129903214D02*
X140152380Y-129760357D01*
X140152380Y-129522261D01*
X140104761Y-129427023D01*
X140057142Y-129379404D01*
X139961904Y-129331785D01*
X139866666Y-129331785D01*
X139771428Y-129379404D01*
X139723809Y-129427023D01*
X139676190Y-129522261D01*
X139628571Y-129712738D01*
X139580952Y-129807976D01*
X139533333Y-129855595D01*
X139438095Y-129903214D01*
X139342857Y-129903214D01*
X139247619Y-129855595D01*
X139200000Y-129807976D01*
X139152380Y-129712738D01*
X139152380Y-129474642D01*
X139200000Y-129331785D01*
X140152380Y-128427023D02*
X140152380Y-128903214D01*
X139152380Y-128903214D01*
X131889523Y-134437380D02*
X131318095Y-134437380D01*
X131603809Y-134437380D02*
X131603809Y-133437380D01*
X131508571Y-133580238D01*
X131413333Y-133675476D01*
X131318095Y-133723095D01*
X132508571Y-133437380D02*
X132603809Y-133437380D01*
X132699047Y-133485000D01*
X132746666Y-133532619D01*
X132794285Y-133627857D01*
X132841904Y-133818333D01*
X132841904Y-134056428D01*
X132794285Y-134246904D01*
X132746666Y-134342142D01*
X132699047Y-134389761D01*
X132603809Y-134437380D01*
X132508571Y-134437380D01*
X132413333Y-134389761D01*
X132365714Y-134342142D01*
X132318095Y-134246904D01*
X132270476Y-134056428D01*
X132270476Y-133818333D01*
X132318095Y-133627857D01*
X132365714Y-133532619D01*
X132413333Y-133485000D01*
X132508571Y-133437380D01*
X102052380Y-132379404D02*
X101052380Y-132379404D01*
X101052380Y-132141309D01*
X101100000Y-131998452D01*
X101195238Y-131903214D01*
X101290476Y-131855595D01*
X101480952Y-131807976D01*
X101623809Y-131807976D01*
X101814285Y-131855595D01*
X101909523Y-131903214D01*
X102004761Y-131998452D01*
X102052380Y-132141309D01*
X102052380Y-132379404D01*
X101052380Y-131188928D02*
X101052380Y-131093690D01*
X101100000Y-130998452D01*
X101147619Y-130950833D01*
X101242857Y-130903214D01*
X101433333Y-130855595D01*
X101671428Y-130855595D01*
X101861904Y-130903214D01*
X101957142Y-130950833D01*
X102004761Y-130998452D01*
X102052380Y-131093690D01*
X102052380Y-131188928D01*
X102004761Y-131284166D01*
X101957142Y-131331785D01*
X101861904Y-131379404D01*
X101671428Y-131427023D01*
X101433333Y-131427023D01*
X101242857Y-131379404D01*
X101147619Y-131331785D01*
X101100000Y-131284166D01*
X101052380Y-131188928D01*
X129992380Y-132379404D02*
X128992380Y-132379404D01*
X129706666Y-132046071D01*
X128992380Y-131712738D01*
X129992380Y-131712738D01*
X129992380Y-130665119D02*
X129516190Y-130998452D01*
X129992380Y-131236547D02*
X128992380Y-131236547D01*
X128992380Y-130855595D01*
X129040000Y-130760357D01*
X129087619Y-130712738D01*
X129182857Y-130665119D01*
X129325714Y-130665119D01*
X129420952Y-130712738D01*
X129468571Y-130760357D01*
X129516190Y-130855595D01*
X129516190Y-131236547D01*
X130087619Y-129569880D02*
X130040000Y-129665119D01*
X129944761Y-129760357D01*
X129801904Y-129903214D01*
X129754285Y-129998452D01*
X129754285Y-130093690D01*
X129992380Y-130046071D02*
X129944761Y-130141309D01*
X129849523Y-130236547D01*
X129659047Y-130284166D01*
X129325714Y-130284166D01*
X129135238Y-130236547D01*
X129040000Y-130141309D01*
X128992380Y-130046071D01*
X128992380Y-129855595D01*
X129040000Y-129760357D01*
X129135238Y-129665119D01*
X129325714Y-129617500D01*
X129659047Y-129617500D01*
X129849523Y-129665119D01*
X129944761Y-129760357D01*
X129992380Y-129855595D01*
X129992380Y-130046071D01*
D11*
X114797114Y-100586503D02*
X114843076Y-100632465D01*
X114889038Y-100770351D01*
X114889038Y-100862275D01*
X114843076Y-101000160D01*
X114751152Y-101092084D01*
X114659228Y-101138046D01*
X114475380Y-101184008D01*
X114337495Y-101184008D01*
X114153647Y-101138046D01*
X114061723Y-101092084D01*
X113969800Y-101000160D01*
X113923838Y-100862275D01*
X113923838Y-100770351D01*
X113969800Y-100632465D01*
X114015761Y-100586503D01*
X113923838Y-99759189D02*
X113923838Y-99943037D01*
X113969800Y-100034960D01*
X114015761Y-100080922D01*
X114153647Y-100172846D01*
X114337495Y-100218808D01*
X114705190Y-100218808D01*
X114797114Y-100172846D01*
X114843076Y-100126884D01*
X114889038Y-100034960D01*
X114889038Y-99851113D01*
X114843076Y-99759189D01*
X114797114Y-99713227D01*
X114705190Y-99667265D01*
X114475380Y-99667265D01*
X114383457Y-99713227D01*
X114337495Y-99759189D01*
X114291533Y-99851113D01*
X114291533Y-100034960D01*
X114337495Y-100126884D01*
X114383457Y-100172846D01*
X114475380Y-100218808D01*
X97533496Y-109717114D02*
X97487534Y-109763076D01*
X97349648Y-109809038D01*
X97257724Y-109809038D01*
X97119839Y-109763076D01*
X97027915Y-109671152D01*
X96981953Y-109579228D01*
X96935991Y-109395380D01*
X96935991Y-109257495D01*
X96981953Y-109073647D01*
X97027915Y-108981723D01*
X97119839Y-108889800D01*
X97257724Y-108843838D01*
X97349648Y-108843838D01*
X97487534Y-108889800D01*
X97533496Y-108935761D01*
X97855229Y-108843838D02*
X98452734Y-108843838D01*
X98131001Y-109211533D01*
X98268886Y-109211533D01*
X98360810Y-109257495D01*
X98406772Y-109303457D01*
X98452734Y-109395380D01*
X98452734Y-109625190D01*
X98406772Y-109717114D01*
X98360810Y-109763076D01*
X98268886Y-109809038D01*
X97993115Y-109809038D01*
X97901191Y-109763076D01*
X97855229Y-109717114D01*
X58790114Y-113179823D02*
X58836076Y-113225785D01*
X58882038Y-113363671D01*
X58882038Y-113455595D01*
X58836076Y-113593480D01*
X58744152Y-113685404D01*
X58652228Y-113731366D01*
X58468380Y-113777328D01*
X58330495Y-113777328D01*
X58146647Y-113731366D01*
X58054723Y-113685404D01*
X57962800Y-113593480D01*
X57916838Y-113455595D01*
X57916838Y-113363671D01*
X57962800Y-113225785D01*
X58008761Y-113179823D01*
X58882038Y-112260585D02*
X58882038Y-112812128D01*
X58882038Y-112536357D02*
X57916838Y-112536357D01*
X58054723Y-112628280D01*
X58146647Y-112720204D01*
X58192609Y-112812128D01*
D10*
X60627380Y-113791904D02*
X61436904Y-113791904D01*
X61532142Y-113744285D01*
X61579761Y-113696666D01*
X61627380Y-113601428D01*
X61627380Y-113410952D01*
X61579761Y-113315714D01*
X61532142Y-113268095D01*
X61436904Y-113220476D01*
X60627380Y-113220476D01*
X61627380Y-112220476D02*
X61627380Y-112791904D01*
X61627380Y-112506190D02*
X60627380Y-112506190D01*
X60770238Y-112601428D01*
X60865476Y-112696666D01*
X60913095Y-112791904D01*
X107402380Y-90926904D02*
X108211904Y-90926904D01*
X108307142Y-90879285D01*
X108354761Y-90831666D01*
X108402380Y-90736428D01*
X108402380Y-90545952D01*
X108354761Y-90450714D01*
X108307142Y-90403095D01*
X108211904Y-90355476D01*
X107402380Y-90355476D01*
X107402380Y-89450714D02*
X107402380Y-89641190D01*
X107450000Y-89736428D01*
X107497619Y-89784047D01*
X107640476Y-89879285D01*
X107830952Y-89926904D01*
X108211904Y-89926904D01*
X108307142Y-89879285D01*
X108354761Y-89831666D01*
X108402380Y-89736428D01*
X108402380Y-89545952D01*
X108354761Y-89450714D01*
X108307142Y-89403095D01*
X108211904Y-89355476D01*
X107973809Y-89355476D01*
X107878571Y-89403095D01*
X107830952Y-89450714D01*
X107783333Y-89545952D01*
X107783333Y-89736428D01*
X107830952Y-89831666D01*
X107878571Y-89879285D01*
X107973809Y-89926904D01*
X126662380Y-116331904D02*
X127471904Y-116331904D01*
X127567142Y-116284285D01*
X127614761Y-116236666D01*
X127662380Y-116141428D01*
X127662380Y-115950952D01*
X127614761Y-115855714D01*
X127567142Y-115808095D01*
X127471904Y-115760476D01*
X126662380Y-115760476D01*
X126995714Y-114855714D02*
X127662380Y-114855714D01*
X126614761Y-115093809D02*
X127329047Y-115331904D01*
X127329047Y-114712857D01*
D11*
X144007114Y-101856503D02*
X144053076Y-101902465D01*
X144099038Y-102040351D01*
X144099038Y-102132275D01*
X144053076Y-102270160D01*
X143961152Y-102362084D01*
X143869228Y-102408046D01*
X143685380Y-102454008D01*
X143547495Y-102454008D01*
X143363647Y-102408046D01*
X143271723Y-102362084D01*
X143179800Y-102270160D01*
X143133838Y-102132275D01*
X143133838Y-102040351D01*
X143179800Y-101902465D01*
X143225761Y-101856503D01*
X143225761Y-101488808D02*
X143179800Y-101442846D01*
X143133838Y-101350922D01*
X143133838Y-101121113D01*
X143179800Y-101029189D01*
X143225761Y-100983227D01*
X143317685Y-100937265D01*
X143409609Y-100937265D01*
X143547495Y-100983227D01*
X144099038Y-101534770D01*
X144099038Y-100937265D01*
D10*
X93162380Y-117006666D02*
X92686190Y-117340000D01*
X93162380Y-117578095D02*
X92162380Y-117578095D01*
X92162380Y-117197142D01*
X92210000Y-117101904D01*
X92257619Y-117054285D01*
X92352857Y-117006666D01*
X92495714Y-117006666D01*
X92590952Y-117054285D01*
X92638571Y-117101904D01*
X92686190Y-117197142D01*
X92686190Y-117578095D01*
X93162380Y-116054285D02*
X93162380Y-116625714D01*
X93162380Y-116340000D02*
X92162380Y-116340000D01*
X92305238Y-116435238D01*
X92400476Y-116530476D01*
X92448095Y-116625714D01*
D11*
X130553496Y-108447114D02*
X130507534Y-108493076D01*
X130369648Y-108539038D01*
X130277724Y-108539038D01*
X130139839Y-108493076D01*
X130047915Y-108401152D01*
X130001953Y-108309228D01*
X129955991Y-108125380D01*
X129955991Y-107987495D01*
X130001953Y-107803647D01*
X130047915Y-107711723D01*
X130139839Y-107619800D01*
X130277724Y-107573838D01*
X130369648Y-107573838D01*
X130507534Y-107619800D01*
X130553496Y-107665761D01*
X131380810Y-107895571D02*
X131380810Y-108539038D01*
X131151001Y-107527876D02*
X130921191Y-108217304D01*
X131518696Y-108217304D01*
D10*
X94912380Y-117601904D02*
X95721904Y-117601904D01*
X95817142Y-117554285D01*
X95864761Y-117506666D01*
X95912380Y-117411428D01*
X95912380Y-117220952D01*
X95864761Y-117125714D01*
X95817142Y-117078095D01*
X95721904Y-117030476D01*
X94912380Y-117030476D01*
X94912380Y-116649523D02*
X94912380Y-116030476D01*
X95293333Y-116363809D01*
X95293333Y-116220952D01*
X95340952Y-116125714D01*
X95388571Y-116078095D01*
X95483809Y-116030476D01*
X95721904Y-116030476D01*
X95817142Y-116078095D01*
X95864761Y-116125714D01*
X95912380Y-116220952D01*
X95912380Y-116506666D01*
X95864761Y-116601904D01*
X95817142Y-116649523D01*
X150368095Y-104652380D02*
X150368095Y-105461904D01*
X150415714Y-105557142D01*
X150463333Y-105604761D01*
X150558571Y-105652380D01*
X150749047Y-105652380D01*
X150844285Y-105604761D01*
X150891904Y-105557142D01*
X150939523Y-105461904D01*
X150939523Y-104652380D01*
X151368095Y-104747619D02*
X151415714Y-104700000D01*
X151510952Y-104652380D01*
X151749047Y-104652380D01*
X151844285Y-104700000D01*
X151891904Y-104747619D01*
X151939523Y-104842857D01*
X151939523Y-104938095D01*
X151891904Y-105080952D01*
X151320476Y-105652380D01*
X151939523Y-105652380D01*
D12*
X115370000Y-102640000D02*
X115370000Y-98100000D01*
X113230000Y-102640000D02*
X113230000Y-98100000D01*
X113230000Y-98100000D02*
X113245000Y-98100000D01*
X113230000Y-102640000D02*
X113245000Y-102640000D01*
X115355000Y-98100000D02*
X115370000Y-98100000D01*
X115355000Y-102640000D02*
X115370000Y-102640000D01*
X95480000Y-108150000D02*
X100020000Y-108150000D01*
X100020000Y-108150000D02*
X100020000Y-108165000D01*
X95480000Y-110290000D02*
X100020000Y-110290000D01*
X95480000Y-110275000D02*
X95480000Y-110290000D01*
X95480000Y-108150000D02*
X95480000Y-108165000D01*
X100020000Y-110275000D02*
X100020000Y-110290000D01*
X59490000Y-115340000D02*
X59490000Y-110800000D01*
X57350000Y-110800000D02*
X57365000Y-110800000D01*
X57350000Y-115340000D02*
X57350000Y-110800000D01*
X59475000Y-110800000D02*
X59490000Y-110800000D01*
X59475000Y-115340000D02*
X59490000Y-115340000D01*
X57350000Y-115340000D02*
X57365000Y-115340000D01*
X87695000Y-110780000D02*
X62175000Y-110780000D01*
X62175000Y-110780000D02*
X62175000Y-112030000D01*
X87695000Y-115280000D02*
X87695000Y-110780000D01*
X62175000Y-114030000D02*
X62175000Y-115280000D01*
X62175000Y-115280000D02*
X87695000Y-115280000D01*
X62175000Y-114030000D02*
G75*
G03*
X62175000Y-112030000I0J1000000D01*
G01*
X113030000Y-93975000D02*
X111887000Y-93975000D01*
X59690000Y-79835000D02*
X59690000Y-103035000D01*
X59690000Y-83815000D02*
X57150000Y-83815000D01*
X111880000Y-79835000D02*
X59690000Y-79835000D01*
X60960000Y-100035000D02*
X111820000Y-100035000D01*
X57150000Y-83815000D02*
X57150000Y-99055000D01*
D13*
X60960000Y-80005000D02*
X60960000Y-102865000D01*
D12*
X113030000Y-88895000D02*
X113030000Y-93975000D01*
X111820000Y-97785000D02*
X111820000Y-82835000D01*
X111820000Y-82835000D02*
X60960000Y-82835000D01*
X57150000Y-99055000D02*
X59690000Y-99055000D01*
X59690000Y-103035000D02*
X111880000Y-103035000D01*
X111820000Y-100035000D02*
X111820000Y-94975000D01*
X111880000Y-103035000D02*
X111880000Y-79835000D01*
X111820000Y-88895000D02*
X113030000Y-88895000D01*
X128210000Y-117820000D02*
X153730000Y-117820000D01*
X153730000Y-117820000D02*
X153730000Y-113320000D01*
X153730000Y-113320000D02*
X128210000Y-113320000D01*
X128210000Y-116570000D02*
X128210000Y-117820000D01*
X128210000Y-113320000D02*
X128210000Y-114570000D01*
X128210000Y-116570000D02*
G75*
G03*
X128210000Y-114570000I0J1000000D01*
G01*
X144580000Y-103910000D02*
X144580000Y-99370000D01*
X144565000Y-103910000D02*
X144580000Y-103910000D01*
X142440000Y-103910000D02*
X142455000Y-103910000D01*
X144565000Y-99370000D02*
X144580000Y-99370000D01*
X142440000Y-103910000D02*
X142440000Y-99370000D01*
X142440000Y-99370000D02*
X142455000Y-99370000D01*
X91340000Y-120110000D02*
X91670000Y-120110000D01*
X94080000Y-113570000D02*
X94080000Y-120110000D01*
X91340000Y-113570000D02*
X91340000Y-120110000D01*
X91670000Y-113570000D02*
X91340000Y-113570000D01*
X93750000Y-113570000D02*
X94080000Y-113570000D01*
X94080000Y-120110000D02*
X93750000Y-120110000D01*
X128500000Y-109005000D02*
X128500000Y-109020000D01*
X128500000Y-109020000D02*
X133040000Y-109020000D01*
X133040000Y-109005000D02*
X133040000Y-109020000D01*
X128500000Y-106880000D02*
X128500000Y-106895000D01*
X133040000Y-106880000D02*
X133040000Y-106895000D01*
X128500000Y-106880000D02*
X133040000Y-106880000D01*
X121980000Y-119090000D02*
X121980000Y-114590000D01*
X96460000Y-114590000D02*
X96460000Y-115840000D01*
X96460000Y-117840000D02*
X96460000Y-119090000D01*
X96460000Y-119090000D02*
X121980000Y-119090000D01*
X121980000Y-114590000D02*
X96460000Y-114590000D01*
X96460000Y-117840000D02*
G75*
G03*
X96460000Y-115840000I0J1000000D01*
G01*
X153380000Y-104200000D02*
X153380000Y-78680000D01*
X148880000Y-104200000D02*
X150130000Y-104200000D01*
X152130000Y-104200000D02*
X153380000Y-104200000D01*
X153380000Y-78680000D02*
X148880000Y-78680000D01*
X148880000Y-78680000D02*
X148880000Y-104200000D01*
X152130000Y-104200000D02*
G75*
G03*
X150130000Y-104200000I-1000000J0D01*
G01*
%LPC*%
D14*
X83660000Y-122465000D03*
X139860000Y-127565000D03*
D15*
X142240000Y-139700000D03*
X139700000Y-139700000D03*
X137160000Y-139700000D03*
X134620000Y-139700000D03*
X132080000Y-139700000D03*
X129540000Y-139700000D03*
X127000000Y-139700000D03*
X124460000Y-139700000D03*
X121920000Y-139700000D03*
X119380000Y-139700000D03*
X116840000Y-139700000D03*
X114300000Y-139700000D03*
X111760000Y-139700000D03*
X109220000Y-139700000D03*
X106680000Y-139700000D03*
X104140000Y-139700000D03*
X101600000Y-139700000D03*
X99060000Y-139700000D03*
X96520000Y-139700000D03*
X93980000Y-139700000D03*
X91440000Y-139700000D03*
X88900000Y-138430000D03*
X86360000Y-139700000D03*
X83820000Y-139700000D03*
X81280000Y-139700000D03*
D16*
X114300000Y-102870000D03*
X114300000Y-97870000D03*
X95250000Y-109220000D03*
X100250000Y-109220000D03*
X58420000Y-115570000D03*
X58420000Y-110570000D03*
D17*
X63505000Y-116840000D03*
D18*
X66045000Y-116840000D03*
X68585000Y-116840000D03*
X71125000Y-116840000D03*
X73665000Y-116840000D03*
X76205000Y-116840000D03*
X78745000Y-116840000D03*
X81285000Y-116840000D03*
X83825000Y-116840000D03*
X86365000Y-116840000D03*
X86365000Y-109220000D03*
X83825000Y-109220000D03*
X81285000Y-109220000D03*
X78745000Y-109220000D03*
X76205000Y-109220000D03*
X73665000Y-109220000D03*
X71125000Y-109220000D03*
X68585000Y-109220000D03*
X66045000Y-109220000D03*
X63505000Y-109220000D03*
D17*
X110490000Y-81275000D03*
D18*
X107950000Y-81275000D03*
X105410000Y-81275000D03*
X102870000Y-81275000D03*
X100330000Y-81275000D03*
X97790000Y-81275000D03*
X95250000Y-81275000D03*
X92710000Y-81275000D03*
X90170000Y-81275000D03*
X87630000Y-81275000D03*
X85090000Y-81275000D03*
X82550000Y-81275000D03*
X80010000Y-81275000D03*
X77470000Y-81275000D03*
X74930000Y-81275000D03*
X72390000Y-81275000D03*
X69850000Y-81275000D03*
X67310000Y-81275000D03*
X64770000Y-81275000D03*
X62230000Y-81275000D03*
X62230000Y-101595000D03*
X64770000Y-101595000D03*
X67310000Y-101595000D03*
X69850000Y-101595000D03*
X72390000Y-101595000D03*
X74930000Y-101595000D03*
X77470000Y-101595000D03*
X80010000Y-101595000D03*
X82550000Y-101595000D03*
X85090000Y-101595000D03*
X87630000Y-101595000D03*
X90170000Y-101595000D03*
X92710000Y-101595000D03*
X95250000Y-101595000D03*
X97790000Y-101595000D03*
X100330000Y-101595000D03*
X102870000Y-101595000D03*
X105410000Y-101595000D03*
X107950000Y-101595000D03*
X110490000Y-101595000D03*
D17*
X129540000Y-119380000D03*
D18*
X132080000Y-119380000D03*
X134620000Y-119380000D03*
X137160000Y-119380000D03*
X139700000Y-119380000D03*
X142240000Y-119380000D03*
X144780000Y-119380000D03*
X147320000Y-119380000D03*
X149860000Y-119380000D03*
X152400000Y-119380000D03*
X152400000Y-111760000D03*
X149860000Y-111760000D03*
X147320000Y-111760000D03*
X144780000Y-111760000D03*
X142240000Y-111760000D03*
X139700000Y-111760000D03*
X137160000Y-111760000D03*
X134620000Y-111760000D03*
X132080000Y-111760000D03*
X129540000Y-111760000D03*
D16*
X143510000Y-104140000D03*
X143510000Y-99140000D03*
X92710000Y-113030000D03*
D19*
X92710000Y-120650000D03*
D16*
X128270000Y-107950000D03*
X133270000Y-107950000D03*
D17*
X97790000Y-120650000D03*
D18*
X100330000Y-120650000D03*
X102870000Y-120650000D03*
X105410000Y-120650000D03*
X107950000Y-120650000D03*
X110490000Y-120650000D03*
X113030000Y-120650000D03*
X115570000Y-120650000D03*
X118110000Y-120650000D03*
X120650000Y-120650000D03*
X120650000Y-113030000D03*
X118110000Y-113030000D03*
X115570000Y-113030000D03*
X113030000Y-113030000D03*
X110490000Y-113030000D03*
X107950000Y-113030000D03*
X105410000Y-113030000D03*
X102870000Y-113030000D03*
X100330000Y-113030000D03*
X97790000Y-113030000D03*
D20*
X154940000Y-102870000D03*
D21*
X154940000Y-100330000D03*
X154940000Y-97790000D03*
X154940000Y-95250000D03*
X154940000Y-92710000D03*
X154940000Y-90170000D03*
X154940000Y-87630000D03*
X154940000Y-85090000D03*
X154940000Y-82550000D03*
X154940000Y-80010000D03*
X147320000Y-80010000D03*
X147320000Y-82550000D03*
X147320000Y-85090000D03*
X147320000Y-87630000D03*
X147320000Y-90170000D03*
X147320000Y-92710000D03*
X147320000Y-95250000D03*
X147320000Y-97790000D03*
X147320000Y-100330000D03*
X147320000Y-102870000D03*
M02*
