G04 #@! TF.GenerationSoftware,KiCad,Pcbnew,(6.0.9)*
G04 #@! TF.CreationDate,2023-07-19T22:39:00+02:00*
G04 #@! TF.ProjectId,Cartucho_MSX_Tang_Nano_20k_V9958,43617274-7563-4686-9f5f-4d53585f5461,rev?*
G04 #@! TF.SameCoordinates,Original*
G04 #@! TF.FileFunction,Copper,L1,Top*
G04 #@! TF.FilePolarity,Positive*
%FSLAX46Y46*%
G04 Gerber Fmt 4.6, Leading zero omitted, Abs format (unit mm)*
G04 Created by KiCad (PCBNEW (6.0.9)) date 2023-07-19 22:39:00*
%MOMM*%
%LPD*%
G01*
G04 APERTURE LIST*
G04 #@! TA.AperFunction,SMDPad,CuDef*
%ADD10R,1.270000X7.620000*%
G04 #@! TD*
G04 #@! TA.AperFunction,ComponentPad*
%ADD11C,1.600000*%
G04 #@! TD*
G04 #@! TA.AperFunction,ComponentPad*
%ADD12R,1.600000X2.400000*%
G04 #@! TD*
G04 #@! TA.AperFunction,ComponentPad*
%ADD13O,1.600000X2.400000*%
G04 #@! TD*
G04 #@! TA.AperFunction,ComponentPad*
%ADD14O,1.600000X1.600000*%
G04 #@! TD*
G04 #@! TA.AperFunction,ComponentPad*
%ADD15R,2.400000X1.600000*%
G04 #@! TD*
G04 #@! TA.AperFunction,ComponentPad*
%ADD16O,2.400000X1.600000*%
G04 #@! TD*
G04 #@! TA.AperFunction,ViaPad*
%ADD17C,0.800000*%
G04 #@! TD*
G04 #@! TA.AperFunction,Conductor*
%ADD18C,0.300000*%
G04 #@! TD*
G04 #@! TA.AperFunction,Conductor*
%ADD19C,0.450000*%
G04 #@! TD*
G04 APERTURE END LIST*
D10*
X142240000Y-139700000D03*
X139700000Y-139700000D03*
X137160000Y-139700000D03*
X134620000Y-139700000D03*
X132080000Y-139700000D03*
X129540000Y-139700000D03*
X127000000Y-139700000D03*
X124460000Y-139700000D03*
X121920000Y-139700000D03*
X119380000Y-139700000D03*
X116840000Y-139700000D03*
X114300000Y-139700000D03*
X111760000Y-139700000D03*
X109220000Y-139700000D03*
X106680000Y-139700000D03*
X104140000Y-139700000D03*
X101600000Y-139700000D03*
X99060000Y-139700000D03*
X96520000Y-139700000D03*
X93980000Y-139700000D03*
X91440000Y-139700000D03*
X88900000Y-138430000D03*
X86360000Y-139700000D03*
X83820000Y-139700000D03*
X81280000Y-139700000D03*
D11*
X114300000Y-102870000D03*
X114300000Y-97870000D03*
X95250000Y-109220000D03*
X100250000Y-109220000D03*
X58420000Y-115570000D03*
X58420000Y-110570000D03*
D12*
X63505000Y-116840000D03*
D13*
X66045000Y-116840000D03*
X68585000Y-116840000D03*
X71125000Y-116840000D03*
X73665000Y-116840000D03*
X76205000Y-116840000D03*
X78745000Y-116840000D03*
X81285000Y-116840000D03*
X83825000Y-116840000D03*
X86365000Y-116840000D03*
X86365000Y-109220000D03*
X83825000Y-109220000D03*
X81285000Y-109220000D03*
X78745000Y-109220000D03*
X76205000Y-109220000D03*
X73665000Y-109220000D03*
X71125000Y-109220000D03*
X68585000Y-109220000D03*
X66045000Y-109220000D03*
X63505000Y-109220000D03*
D12*
X110490000Y-81275000D03*
D13*
X107950000Y-81275000D03*
X105410000Y-81275000D03*
X102870000Y-81275000D03*
X100330000Y-81275000D03*
X97790000Y-81275000D03*
X95250000Y-81275000D03*
X92710000Y-81275000D03*
X90170000Y-81275000D03*
X87630000Y-81275000D03*
X85090000Y-81275000D03*
X82550000Y-81275000D03*
X80010000Y-81275000D03*
X77470000Y-81275000D03*
X74930000Y-81275000D03*
X72390000Y-81275000D03*
X69850000Y-81275000D03*
X67310000Y-81275000D03*
X64770000Y-81275000D03*
X62230000Y-81275000D03*
X62230000Y-101595000D03*
X64770000Y-101595000D03*
X67310000Y-101595000D03*
X69850000Y-101595000D03*
X72390000Y-101595000D03*
X74930000Y-101595000D03*
X77470000Y-101595000D03*
X80010000Y-101595000D03*
X82550000Y-101595000D03*
X85090000Y-101595000D03*
X87630000Y-101595000D03*
X90170000Y-101595000D03*
X92710000Y-101595000D03*
X95250000Y-101595000D03*
X97790000Y-101595000D03*
X100330000Y-101595000D03*
X102870000Y-101595000D03*
X105410000Y-101595000D03*
X107950000Y-101595000D03*
X110490000Y-101595000D03*
D12*
X129540000Y-119380000D03*
D13*
X132080000Y-119380000D03*
X134620000Y-119380000D03*
X137160000Y-119380000D03*
X139700000Y-119380000D03*
X142240000Y-119380000D03*
X144780000Y-119380000D03*
X147320000Y-119380000D03*
X149860000Y-119380000D03*
X152400000Y-119380000D03*
X152400000Y-111760000D03*
X149860000Y-111760000D03*
X147320000Y-111760000D03*
X144780000Y-111760000D03*
X142240000Y-111760000D03*
X139700000Y-111760000D03*
X137160000Y-111760000D03*
X134620000Y-111760000D03*
X132080000Y-111760000D03*
X129540000Y-111760000D03*
D11*
X143510000Y-104140000D03*
X143510000Y-99140000D03*
X92710000Y-113030000D03*
D14*
X92710000Y-120650000D03*
D11*
X128270000Y-107950000D03*
X133270000Y-107950000D03*
D12*
X97790000Y-120650000D03*
D13*
X100330000Y-120650000D03*
X102870000Y-120650000D03*
X105410000Y-120650000D03*
X107950000Y-120650000D03*
X110490000Y-120650000D03*
X113030000Y-120650000D03*
X115570000Y-120650000D03*
X118110000Y-120650000D03*
X120650000Y-120650000D03*
X120650000Y-113030000D03*
X118110000Y-113030000D03*
X115570000Y-113030000D03*
X113030000Y-113030000D03*
X110490000Y-113030000D03*
X107950000Y-113030000D03*
X105410000Y-113030000D03*
X102870000Y-113030000D03*
X100330000Y-113030000D03*
X97790000Y-113030000D03*
D15*
X154940000Y-102870000D03*
D16*
X154940000Y-100330000D03*
X154940000Y-97790000D03*
X154940000Y-95250000D03*
X154940000Y-92710000D03*
X154940000Y-90170000D03*
X154940000Y-87630000D03*
X154940000Y-85090000D03*
X154940000Y-82550000D03*
X154940000Y-80010000D03*
X147320000Y-80010000D03*
X147320000Y-82550000D03*
X147320000Y-85090000D03*
X147320000Y-87630000D03*
X147320000Y-90170000D03*
X147320000Y-92710000D03*
X147320000Y-95250000D03*
X147320000Y-97790000D03*
X147320000Y-100330000D03*
X147320000Y-102870000D03*
D17*
X109324300Y-104534300D03*
X89066300Y-92354600D03*
X86073900Y-104836100D03*
X89813800Y-90905600D03*
X122766400Y-111985900D03*
X121667400Y-87370300D03*
X133092900Y-113526600D03*
X150501700Y-100261400D03*
X130633300Y-106799500D03*
X128304900Y-106072100D03*
X131562600Y-105835100D03*
X128982000Y-105290600D03*
X93177800Y-98285100D03*
X125437500Y-104566200D03*
X123738500Y-103772600D03*
X71402000Y-104142300D03*
X80286300Y-95859500D03*
X80010500Y-103419100D03*
X79153600Y-104821700D03*
X87845100Y-96085300D03*
X88492200Y-98430600D03*
X91240800Y-98538700D03*
X113020600Y-132696600D03*
X136107000Y-126184600D03*
X141952700Y-124623700D03*
X115601000Y-132622000D03*
X122785900Y-129545900D03*
X144258000Y-126006300D03*
X135236700Y-115822900D03*
X114236300Y-129146500D03*
X116240700Y-129896700D03*
X118110000Y-132274500D03*
X100701200Y-130205000D03*
X86026400Y-125188400D03*
X102056400Y-127996000D03*
X85035900Y-126905000D03*
X93815500Y-129408400D03*
X92710000Y-132696600D03*
X101832000Y-122200100D03*
X90131800Y-130158500D03*
X107871400Y-124876600D03*
X101914800Y-124876600D03*
X100308400Y-132619300D03*
X97150200Y-130203400D03*
X95880100Y-123245500D03*
X90177300Y-131401000D03*
X133352400Y-122602800D03*
X133350000Y-131279200D03*
X133350000Y-132696600D03*
X86074100Y-126404900D03*
X105652900Y-107962700D03*
X84488700Y-113615100D03*
D18*
X86462700Y-94958200D02*
X89066300Y-92354600D01*
X86462700Y-102478900D02*
X86462700Y-94958200D01*
X87526200Y-103542400D02*
X86462700Y-102478900D01*
X87767800Y-103542400D02*
X87526200Y-103542400D01*
X88437200Y-104211800D02*
X87767800Y-103542400D01*
X109001800Y-104211800D02*
X88437200Y-104211800D01*
X109324300Y-104534300D02*
X109001800Y-104211800D01*
X83896100Y-102658300D02*
X86073900Y-104836100D01*
X83896100Y-96464100D02*
X83896100Y-102658300D01*
X89454600Y-90905600D02*
X83896100Y-96464100D01*
X89813800Y-90905600D02*
X89454600Y-90905600D01*
X121722300Y-113030000D02*
X122766400Y-111985900D01*
X120650000Y-113030000D02*
X121722300Y-113030000D01*
X88679800Y-78675100D02*
X87630000Y-79724900D01*
X112972200Y-78675100D02*
X88679800Y-78675100D01*
X121667400Y-87370300D02*
X112972200Y-78675100D01*
X87630000Y-81275000D02*
X87630000Y-79724900D01*
X134620000Y-111760000D02*
X134620000Y-110209900D01*
X109461100Y-110209900D02*
X134620000Y-110209900D01*
X106337700Y-107086500D02*
X109461100Y-110209900D01*
X67721500Y-107086500D02*
X106337700Y-107086500D01*
X62230000Y-101595000D02*
X67721500Y-107086500D01*
X133309400Y-113310100D02*
X133092900Y-113526600D01*
X137160000Y-113310100D02*
X133309400Y-113310100D01*
X137160000Y-111760000D02*
X137160000Y-113310100D01*
X67310000Y-101595000D02*
X67310000Y-100044900D01*
X150501700Y-91256300D02*
X150501700Y-100261400D01*
X148145400Y-88900000D02*
X150501700Y-91256300D01*
X120610100Y-88900000D02*
X148145400Y-88900000D01*
X110925100Y-79215000D02*
X120610100Y-88900000D01*
X92679300Y-79215000D02*
X110925100Y-79215000D01*
X91559800Y-80334500D02*
X92679300Y-79215000D01*
X91559800Y-82216600D02*
X91559800Y-80334500D01*
X73731500Y-100044900D02*
X91559800Y-82216600D01*
X67310000Y-100044900D02*
X73731500Y-100044900D01*
X142240000Y-111760000D02*
X142240000Y-110209900D01*
X141711300Y-109681200D02*
X142240000Y-110209900D01*
X109896400Y-109681200D02*
X141711300Y-109681200D01*
X106801600Y-106586400D02*
X109896400Y-109681200D01*
X72691100Y-106586400D02*
X106801600Y-106586400D01*
X69850000Y-103745300D02*
X72691100Y-106586400D01*
X69850000Y-101595000D02*
X69850000Y-103745300D01*
X144780000Y-111760000D02*
X144780000Y-110209900D01*
X143751200Y-109181100D02*
X144780000Y-110209900D01*
X110103500Y-109181100D02*
X143751200Y-109181100D01*
X107008700Y-106086300D02*
X110103500Y-109181100D01*
X81593700Y-106086300D02*
X107008700Y-106086300D01*
X79259600Y-103752200D02*
X81593700Y-106086300D01*
X79259600Y-102345400D02*
X79259600Y-103752200D01*
X80010000Y-101595000D02*
X79259600Y-102345400D01*
X82550000Y-101595000D02*
X82550000Y-103145100D01*
X147320000Y-111760000D02*
X147320000Y-110209900D01*
X143909600Y-106799500D02*
X130633300Y-106799500D01*
X147320000Y-110209900D02*
X143909600Y-106799500D01*
X107701700Y-106072100D02*
X128304900Y-106072100D01*
X107215800Y-105586200D02*
X107701700Y-106072100D01*
X84991100Y-105586200D02*
X107215800Y-105586200D01*
X82550000Y-103145100D02*
X84991100Y-105586200D01*
X85090000Y-101595000D02*
X85090000Y-103145100D01*
X149860000Y-111760000D02*
X149860000Y-110209900D01*
X145485200Y-105835100D02*
X131562600Y-105835100D01*
X149860000Y-110209900D02*
X145485200Y-105835100D01*
X126943900Y-105290600D02*
X128982000Y-105290600D01*
X126851400Y-105383100D02*
X126943900Y-105290600D01*
X108134100Y-105383100D02*
X126851400Y-105383100D01*
X107463000Y-104712000D02*
X108134100Y-105383100D01*
X88173400Y-104712000D02*
X107463000Y-104712000D01*
X87547400Y-104086000D02*
X88173400Y-104712000D01*
X86030900Y-104086000D02*
X87547400Y-104086000D01*
X85090000Y-103145100D02*
X86030900Y-104086000D01*
X87630000Y-101595000D02*
X87630000Y-100044900D01*
X147320000Y-97790000D02*
X145769900Y-97790000D01*
X145457300Y-97477400D02*
X145769900Y-97790000D01*
X117176700Y-97477400D02*
X145457300Y-97477400D01*
X115609400Y-99044700D02*
X117176700Y-97477400D01*
X91795600Y-99044700D02*
X115609400Y-99044700D01*
X91551500Y-99288800D02*
X91795600Y-99044700D01*
X88386100Y-99288800D02*
X91551500Y-99288800D01*
X87630000Y-100044900D02*
X88386100Y-99288800D01*
X147320000Y-95250000D02*
X148870100Y-95250000D01*
X90170000Y-101595000D02*
X90170000Y-100044900D01*
X91502600Y-100044900D02*
X90170000Y-100044900D01*
X92002700Y-99544800D02*
X91502600Y-100044900D01*
X115816500Y-99544800D02*
X92002700Y-99544800D01*
X117383800Y-97977500D02*
X115816500Y-99544800D01*
X144616300Y-97977500D02*
X117383800Y-97977500D01*
X145582800Y-98944000D02*
X144616300Y-97977500D01*
X148197900Y-98944000D02*
X145582800Y-98944000D01*
X148870100Y-98271800D02*
X148197900Y-98944000D01*
X148870100Y-95250000D02*
X148870100Y-98271800D01*
X147320000Y-92710000D02*
X148870100Y-92710000D01*
X92710000Y-101595000D02*
X92710000Y-100044900D01*
X116471200Y-100044900D02*
X92710000Y-100044900D01*
X117931900Y-101505600D02*
X116471200Y-100044900D01*
X148239800Y-101505600D02*
X117931900Y-101505600D01*
X149415800Y-100329600D02*
X148239800Y-101505600D01*
X149415800Y-93255700D02*
X149415800Y-100329600D01*
X148870100Y-92710000D02*
X149415800Y-93255700D01*
X101292900Y-90170000D02*
X93177800Y-98285100D01*
X147320000Y-90170000D02*
X101292900Y-90170000D01*
X97790000Y-101595000D02*
X97790000Y-103145100D01*
X98323400Y-103678500D02*
X97790000Y-103145100D01*
X110422500Y-103678500D02*
X98323400Y-103678500D01*
X111310200Y-104566200D02*
X110422500Y-103678500D01*
X125437500Y-104566200D02*
X111310200Y-104566200D01*
X100330000Y-101595000D02*
X100330000Y-103145100D01*
X112948600Y-103145100D02*
X100330000Y-103145100D01*
X113828500Y-104025000D02*
X112948600Y-103145100D01*
X123486100Y-104025000D02*
X113828500Y-104025000D01*
X123738500Y-103772600D02*
X123486100Y-104025000D01*
X67467900Y-107669900D02*
X68585000Y-107669900D01*
X62943200Y-103145200D02*
X67467900Y-107669900D01*
X61752200Y-103145200D02*
X62943200Y-103145200D01*
X61024800Y-102417800D02*
X61752200Y-103145200D01*
X61024800Y-100702600D02*
X61024800Y-102417800D01*
X78902300Y-82825100D02*
X61024800Y-100702600D01*
X90170000Y-82825100D02*
X78902300Y-82825100D01*
X90170000Y-81275000D02*
X90170000Y-82825100D01*
X68585000Y-109220000D02*
X68585000Y-107669900D01*
X71882500Y-104142300D02*
X71402000Y-104142300D01*
X73779800Y-102245000D02*
X71882500Y-104142300D01*
X73779800Y-100711200D02*
X73779800Y-102245000D01*
X91665900Y-82825100D02*
X73779800Y-100711200D01*
X92710000Y-82825100D02*
X91665900Y-82825100D01*
X92710000Y-81275000D02*
X92710000Y-82825100D01*
X95250000Y-81275000D02*
X95250000Y-82825100D01*
X82215600Y-95859500D02*
X80286300Y-95859500D01*
X95250000Y-82825100D02*
X82215600Y-95859500D01*
X97790000Y-81275000D02*
X97790000Y-82825100D01*
X80246200Y-103419100D02*
X80010500Y-103419100D01*
X81399800Y-102265500D02*
X80246200Y-103419100D01*
X81399800Y-98253200D02*
X81399800Y-102265500D01*
X96827900Y-82825100D02*
X81399800Y-98253200D01*
X97790000Y-82825100D02*
X96827900Y-82825100D01*
X100330000Y-81275000D02*
X100330000Y-79724900D01*
X78759400Y-104427500D02*
X79153600Y-104821700D01*
X78759400Y-100033800D02*
X78759400Y-104427500D01*
X96458600Y-82334600D02*
X78759400Y-100033800D01*
X96458600Y-80576100D02*
X96458600Y-82334600D01*
X97309800Y-79724900D02*
X96458600Y-80576100D01*
X100330000Y-79724900D02*
X97309800Y-79724900D01*
X102870000Y-81275000D02*
X102870000Y-82825100D01*
X89609800Y-96085300D02*
X87845100Y-96085300D01*
X102870000Y-82825100D02*
X89609800Y-96085300D01*
X104097700Y-82825100D02*
X88492200Y-98430600D01*
X107950000Y-82825100D02*
X104097700Y-82825100D01*
X107950000Y-81275000D02*
X107950000Y-82825100D01*
X110490000Y-81275000D02*
X110490000Y-82825100D01*
X101836100Y-87943400D02*
X91240800Y-98538700D01*
X105371700Y-87943400D02*
X101836100Y-87943400D01*
X110490000Y-82825100D02*
X105371700Y-87943400D01*
X139700000Y-133140700D02*
X139700000Y-139700000D01*
X147320000Y-125520700D02*
X139700000Y-133140700D01*
X147320000Y-120930100D02*
X147320000Y-125520700D01*
X147320000Y-119380000D02*
X147320000Y-120930100D01*
X95410200Y-119099900D02*
X93860100Y-120650000D01*
X97790000Y-119099900D02*
X95410200Y-119099900D01*
X97790000Y-120650000D02*
X97790000Y-119099900D01*
X92710000Y-120650000D02*
X93860100Y-120650000D01*
X111760000Y-133957200D02*
X111760000Y-139700000D01*
X113020600Y-132696600D02*
X111760000Y-133957200D01*
X114300000Y-134871700D02*
X114300000Y-139700000D01*
X115085400Y-134086300D02*
X114300000Y-134871700D01*
X115197700Y-134086300D02*
X115085400Y-134086300D01*
X123099400Y-126184600D02*
X115197700Y-134086300D01*
X136107000Y-126184600D02*
X123099400Y-126184600D01*
X123599300Y-124623700D02*
X141952700Y-124623700D01*
X115601000Y-132622000D02*
X123599300Y-124623700D01*
X119380000Y-132951800D02*
X119380000Y-139700000D01*
X122785900Y-129545900D02*
X119380000Y-132951800D01*
X121920000Y-134815200D02*
X121920000Y-139700000D01*
X126356000Y-130379200D02*
X121920000Y-134815200D01*
X141026000Y-130379200D02*
X126356000Y-130379200D01*
X144258000Y-127147200D02*
X141026000Y-130379200D01*
X144258000Y-126006300D02*
X144258000Y-127147200D01*
X154940000Y-97790000D02*
X156490100Y-97790000D01*
X147900700Y-115822900D02*
X135236700Y-115822900D01*
X151130000Y-112593600D02*
X147900700Y-115822900D01*
X151130000Y-110034400D02*
X151130000Y-112593600D01*
X156490100Y-104674300D02*
X151130000Y-110034400D01*
X156490100Y-97790000D02*
X156490100Y-104674300D01*
X91089800Y-124104800D02*
X83825000Y-116840000D01*
X109194600Y-124104800D02*
X91089800Y-124104800D01*
X114236300Y-129146500D02*
X109194600Y-124104800D01*
X116840000Y-133544500D02*
X116840000Y-139700000D01*
X118110000Y-132274500D02*
X116840000Y-133544500D01*
X81285000Y-116840000D02*
X81285000Y-118390100D01*
X83545400Y-118390100D02*
X81285000Y-118390100D01*
X89760300Y-124605000D02*
X83545400Y-118390100D01*
X99726200Y-124605000D02*
X89760300Y-124605000D01*
X105017900Y-129896700D02*
X99726200Y-124605000D01*
X116240700Y-129896700D02*
X105017900Y-129896700D01*
X78745000Y-116840000D02*
X78745000Y-118390100D01*
X98401400Y-127905200D02*
X100701200Y-130205000D01*
X84930900Y-127905200D02*
X98401400Y-127905200D01*
X78745000Y-121719300D02*
X84930900Y-127905200D01*
X78745000Y-118390100D02*
X78745000Y-121719300D01*
X104140000Y-139700000D02*
X104140000Y-135539900D01*
X76205000Y-119904200D02*
X76205000Y-116840000D01*
X84956300Y-128655500D02*
X76205000Y-119904200D01*
X96840700Y-128655500D02*
X84956300Y-128655500D01*
X99140300Y-130955100D02*
X96840700Y-128655500D01*
X100426000Y-130955100D02*
X99140300Y-130955100D01*
X104140000Y-134669100D02*
X100426000Y-130955100D01*
X104140000Y-135539900D02*
X104140000Y-134669100D01*
X99248800Y-125188400D02*
X102056400Y-127996000D01*
X86026400Y-125188400D02*
X99248800Y-125188400D01*
X106680000Y-134882100D02*
X106680000Y-139700000D01*
X99203000Y-127405100D02*
X106680000Y-134882100D01*
X85536000Y-127405100D02*
X99203000Y-127405100D01*
X85035900Y-126905000D02*
X85536000Y-127405100D01*
X68585000Y-116840000D02*
X68585000Y-118390100D01*
X79603300Y-129408400D02*
X93815500Y-129408400D01*
X68585000Y-118390100D02*
X79603300Y-129408400D01*
X93980000Y-133966600D02*
X93980000Y-139700000D01*
X92710000Y-132696600D02*
X93980000Y-133966600D01*
X113030000Y-120650000D02*
X113030000Y-122200100D01*
X113030000Y-122200100D02*
X101832000Y-122200100D01*
X96520000Y-134846500D02*
X96520000Y-139700000D01*
X91832000Y-130158500D02*
X96520000Y-134846500D01*
X90131800Y-130158500D02*
X91832000Y-130158500D01*
X107871400Y-124876600D02*
X101914800Y-124876600D01*
X99060000Y-133867700D02*
X99060000Y-139700000D01*
X100308400Y-132619300D02*
X99060000Y-133867700D01*
X98683700Y-131736900D02*
X97150200Y-130203400D01*
X100499500Y-131736900D02*
X98683700Y-131736900D01*
X101600000Y-132837400D02*
X100499500Y-131736900D01*
X101600000Y-139700000D02*
X101600000Y-132837400D01*
X91440000Y-132663700D02*
X91440000Y-139700000D01*
X90177300Y-131401000D02*
X91440000Y-132663700D01*
X144780000Y-119380000D02*
X144780000Y-120930100D01*
X96033100Y-123398500D02*
X95880100Y-123245500D01*
X142311600Y-123398500D02*
X96033100Y-123398500D01*
X144780000Y-120930100D02*
X142311600Y-123398500D01*
X142240000Y-119380000D02*
X142240000Y-120930100D01*
X135025100Y-120930100D02*
X133352400Y-122602800D01*
X142240000Y-120930100D02*
X135025100Y-120930100D01*
X127000000Y-134885700D02*
X127000000Y-139700000D01*
X130606500Y-131279200D02*
X127000000Y-134885700D01*
X133350000Y-131279200D02*
X130606500Y-131279200D01*
X129540000Y-134851900D02*
X129540000Y-139700000D01*
X131695300Y-132696600D02*
X129540000Y-134851900D01*
X133350000Y-132696600D02*
X131695300Y-132696600D01*
X109220000Y-134886900D02*
X109220000Y-139700000D01*
X103773100Y-129440000D02*
X109220000Y-134886900D01*
X102155100Y-129440000D02*
X103773100Y-129440000D01*
X99120000Y-126404900D02*
X102155100Y-129440000D01*
X86074100Y-126404900D02*
X99120000Y-126404900D01*
X88900000Y-134620000D02*
X88900000Y-138430000D01*
X88750000Y-134470000D02*
X88900000Y-134620000D01*
X87059900Y-134470000D02*
X88750000Y-134470000D01*
X86360000Y-135170000D02*
X87059900Y-134470000D01*
X86360000Y-139700000D02*
X86360000Y-135170000D01*
D19*
X90141100Y-107962700D02*
X105652900Y-107962700D01*
X84488700Y-113615100D02*
X90141100Y-107962700D01*
X144700000Y-100330000D02*
X143510000Y-99140000D01*
X147320000Y-100330000D02*
X144700000Y-100330000D01*
X152400000Y-117754900D02*
X149860000Y-117754900D01*
X152400000Y-119380000D02*
X152400000Y-117754900D01*
X149860000Y-119380000D02*
X149860000Y-117917400D01*
X149860000Y-117917400D02*
X149860000Y-117754900D01*
X132080000Y-111760000D02*
X132080000Y-113385100D01*
X86365000Y-116840000D02*
X86365000Y-115214900D01*
X135993400Y-117754900D02*
X149860000Y-117754900D01*
X132080000Y-113841500D02*
X135993400Y-117754900D01*
X132080000Y-113385100D02*
X132080000Y-113841500D01*
X104699800Y-119024900D02*
X100330000Y-114655100D01*
X120650000Y-119024900D02*
X104699800Y-119024900D01*
X120650000Y-120650000D02*
X120650000Y-119024900D01*
X100330000Y-113030000D02*
X100330000Y-114492500D01*
X100330000Y-114492500D02*
X100330000Y-114655100D01*
X66045000Y-109220000D02*
X66045000Y-110845100D01*
X86365000Y-115214900D02*
X86365000Y-115214800D01*
X99770300Y-115214800D02*
X86365000Y-115214800D01*
X100330000Y-114655100D02*
X99770300Y-115214800D01*
X70414700Y-115214800D02*
X66045000Y-110845100D01*
X86365000Y-115214800D02*
X70414700Y-115214800D01*
X58695100Y-110845100D02*
X58420000Y-110570000D01*
X66045000Y-110845100D02*
X58695100Y-110845100D01*
X63505000Y-109220000D02*
X63505000Y-107594900D01*
X97790000Y-113030000D02*
X97790000Y-111404900D01*
X129540000Y-111760000D02*
X129540000Y-119380000D01*
X147320000Y-102870000D02*
X154940000Y-102870000D01*
X95427600Y-109397600D02*
X95250000Y-109220000D01*
X95427600Y-110312400D02*
X95427600Y-109397600D01*
X96520100Y-111404900D02*
X95427600Y-110312400D01*
X97790000Y-111404900D02*
X96520100Y-111404900D01*
X95427600Y-110312400D02*
X92710000Y-113030000D01*
X91299800Y-114440200D02*
X92710000Y-113030000D01*
X71617200Y-114440200D02*
X91299800Y-114440200D01*
X67315000Y-110138000D02*
X71617200Y-114440200D01*
X67315000Y-108330400D02*
X67315000Y-110138000D01*
X66579500Y-107594900D02*
X67315000Y-108330400D01*
X63505000Y-107594900D02*
X66579500Y-107594900D01*
X98034100Y-111160800D02*
X97790000Y-111404900D01*
X128940800Y-111160800D02*
X98034100Y-111160800D01*
X129540000Y-111760000D02*
X128940800Y-111160800D01*
X144780000Y-102870000D02*
X143510000Y-104140000D01*
X147320000Y-102870000D02*
X144780000Y-102870000D01*
X132080000Y-104140000D02*
X128270000Y-107950000D01*
X143510000Y-104140000D02*
X132080000Y-104140000D01*
M02*
